<svg width="28" height="28" viewBox="0 0 28 28" fill="none" xmlns="http://www.w3.org/2000/svg">
<path d="M18.478 25.3299L18.4775 25.3305C17.9711 26.0304 17.3013 26.6019 16.5235 26.9969C15.7457 27.3919 14.8827 27.5988 14.0065 27.6C13.1302 27.6012 12.2666 27.3967 11.4877 27.0038C10.7088 26.6109 10.0374 26.0413 9.52892 25.3428L9.52886 25.3428C6.10529 20.6424 4.93589 14.0963 4.55873 11.387C4.558 11.364 4.55549 11.3411 4.5512 11.3183C4.46563 10.8636 4.41509 10.4032 4.4 9.94108V9.76871C4.41701 7.31835 5.40458 4.96944 7.15555 3.22041C8.90706 1.47085 11.2847 0.459326 13.7847 0.402527C16.2846 0.345729 18.7075 1.2482 20.5396 2.91654C22.3689 4.58225 23.4655 6.88029 23.6 9.32382V11.3657C23.3123 13.5055 22.6159 16.1934 21.696 18.7542C20.771 21.3293 19.6317 23.7428 18.478 25.3299Z" fill="#8468BF" stroke="#714FBB" stroke-width="0.8"/>
<path d="M10.3636 10H9V8H19V10H17.6364M14.4545 14H15.8182M14.4545 12.5H15.8182M14.4545 11H15.8182M13.0909 16V8M9.90909 6H11.2727M12.1818 6H13.5455M14.4545 6H15.8182M16.7273 6H18.0909M11.2727 8H16.7273V15.003C16.7262 15.2683 16.6294 15.5224 16.4582 15.7093C16.287 15.8962 16.0553 16.0008 15.8141 16H12.1864C12.0669 16.0005 11.9484 15.9751 11.8378 15.9253C11.7273 15.8755 11.6267 15.8022 11.5418 15.7096C11.457 15.6171 11.3896 15.507 11.3434 15.3858C11.2972 15.2645 11.2732 15.1344 11.2727 15.003V8Z" stroke="white" stroke-width="1.1"/>
</svg>
