<svg width="28" height="28" viewBox="0 0 28 28" fill="none" xmlns="http://www.w3.org/2000/svg">
<path d="M18.478 25.3299L18.4775 25.3305C17.9711 26.0304 17.3013 26.6019 16.5235 26.9969C15.7457 27.3919 14.8827 27.5988 14.0065 27.6C13.1302 27.6012 12.2666 27.3967 11.4877 27.0038C10.7088 26.6109 10.0374 26.0413 9.52892 25.3428L9.52886 25.3428C6.10529 20.6424 4.93589 14.0963 4.55873 11.387C4.558 11.364 4.55549 11.3411 4.5512 11.3183C4.46563 10.8636 4.41509 10.4032 4.4 9.94108V9.76871C4.41701 7.31835 5.40458 4.96944 7.15555 3.22041C8.90706 1.47085 11.2847 0.459326 13.7847 0.402527C16.2846 0.345729 18.7075 1.2482 20.5396 2.91654C22.3689 4.58225 23.4655 6.88029 23.6 9.32382V11.3657C23.3123 13.5055 22.6159 16.1934 21.696 18.7542C20.771 21.3293 19.6317 23.7428 18.478 25.3299Z" fill="#8468BF" stroke="#714FBB" stroke-width="0.8"/>
<path fill-rule="evenodd" clip-rule="evenodd" d="M12.6686 10.1368L13.5032 9.3171L9.16528 5.05691C9.04434 4.93813 8.83731 5.01706 8.82965 5.18487L8.78191 6.23086C8.77943 6.28505 8.80027 6.33776 8.83933 6.37612L12.6686 10.1368Z" fill="white"/>
<path fill-rule="evenodd" clip-rule="evenodd" d="M10.5574 17C11.9698 17 13.1148 15.8756 13.1148 14.4885C13.1148 13.8807 12.8948 13.3232 12.529 12.8888L13.7735 11.6667C13.8887 11.5535 14.0756 11.5535 14.1908 11.6667L15.4549 12.9081C15.0987 13.3397 14.8852 13.8897 14.8852 14.4885C14.8852 15.8756 16.0302 17 17.4426 17C18.855 17 20 15.8756 20 14.4885C20 13.1014 18.855 11.9769 17.4426 11.9769C17.0708 11.9769 16.7173 12.0549 16.3983 12.1952L15.0254 10.847C14.9102 10.7338 14.9102 10.5504 15.0254 10.4372L19.1028 6.43294C19.1397 6.39671 19.1604 6.34757 19.1604 6.29633V5.20346C19.1604 5.03134 18.9485 4.94515 18.8246 5.06685L11.577 12.1845C11.2645 12.051 10.9196 11.9769 10.5574 11.9769C9.14498 11.9769 8 13.1014 8 14.4885C8 15.8756 9.14498 17 10.5574 17ZM11.9344 14.4885C11.9344 15.2354 11.3179 15.8408 10.5574 15.8408C9.79685 15.8408 9.18033 15.2354 9.18033 14.4885C9.18033 13.7416 9.79685 13.1361 10.5574 13.1361C11.3179 13.1361 11.9344 13.7416 11.9344 14.4885ZM18.8197 14.4885C18.8197 15.2354 18.2031 15.8408 17.4426 15.8408C16.6821 15.8408 16.0656 15.2354 16.0656 14.4885C16.0656 13.7416 16.6821 13.1361 17.4426 13.1361C18.2031 13.1361 18.8197 13.7416 18.8197 14.4885Z" fill="white"/>
</svg>
