<svg width="28" height="28" viewBox="0 0 28 28" fill="none" xmlns="http://www.w3.org/2000/svg">
<path d="M18.478 25.3299L18.4775 25.3305C17.9711 26.0304 17.3013 26.6019 16.5235 26.9969C15.7457 27.3919 14.8827 27.5988 14.0065 27.6C13.1302 27.6012 12.2666 27.3967 11.4877 27.0038C10.7088 26.6109 10.0374 26.0413 9.52892 25.3428L9.52886 25.3428C6.10529 20.6424 4.93589 14.0963 4.55873 11.387C4.558 11.364 4.55549 11.3411 4.5512 11.3183C4.46563 10.8636 4.41509 10.4032 4.4 9.94108V9.76871C4.41701 7.31835 5.40458 4.96944 7.15555 3.22041C8.90706 1.47085 11.2847 0.459326 13.7847 0.402527C16.2846 0.345729 18.7075 1.2482 20.5396 2.91654C22.3689 4.58225 23.4655 6.88029 23.6 9.32382V11.3657C23.3123 13.5055 22.6159 16.1934 21.696 18.7542C20.771 21.3293 19.6317 23.7428 18.478 25.3299Z" fill="#8468BF" stroke="#714FBB" stroke-width="0.8"/>
<path fill-rule="evenodd" clip-rule="evenodd" d="M19.7038 8.07596L14.19 5L8.31635 7.99354C8.12154 8.09282 8 8.28567 8 8.49549V8.81177C8 9.12645 8.26886 9.38155 8.60051 9.38155H19.3995C19.7311 9.38155 20 9.12645 20 8.81177V8.56714C20 8.36518 19.8873 8.17832 19.7038 8.07596ZM17.0144 8.06667H11.0233L14.1427 6.49349L17.0144 8.06667Z" fill="white"/>
<path d="M10.8821 10.179H9.49626V14.669H10.8821V10.179Z" fill="white"/>
<path d="M18.5037 10.179H17.1179V14.669H18.5037V10.179Z" fill="white"/>
<path d="M19.3995 15.6851H8.60051C8.26886 15.6851 8 15.9402 8 16.2549V16.4302C8 16.7449 8.26886 17 8.60051 17H19.3995C19.7311 17 20 16.7449 20 16.4302V16.2549C20 15.9402 19.7311 15.6851 19.3995 15.6851Z" fill="white"/>
<path d="M14.231 10.3539V10.9994H13.8985V10.3539H14.231ZM14.19 13.8791V14.4576H13.8597V13.8791H14.19ZM14.5159 13.1818C14.5159 13.0984 14.4987 13.0257 14.4641 12.9638C14.431 12.9005 14.3763 12.8436 14.3001 12.7933C14.2238 12.7415 14.1216 12.6933 13.9935 12.6486C13.8093 12.5839 13.6481 12.5112 13.51 12.4306C13.3733 12.3486 13.2668 12.2478 13.1905 12.1284C13.1156 12.0075 13.0782 11.8571 13.0782 11.6772C13.0782 11.5002 13.1185 11.3469 13.1991 11.2174C13.2811 11.0879 13.3948 10.9879 13.5402 10.9174C13.6855 10.8468 13.8554 10.8116 14.0497 10.8116C14.1993 10.8116 14.3339 10.8339 14.4533 10.8785C14.5742 10.9231 14.6771 10.9886 14.762 11.0749C14.8469 11.1613 14.9117 11.2678 14.9563 11.3944C15.0024 11.5196 15.0254 11.6635 15.0254 11.8262H14.5073C14.5073 11.7341 14.4965 11.652 14.4749 11.5801C14.4548 11.5067 14.4245 11.4448 14.3843 11.3944C14.344 11.3426 14.295 11.303 14.2375 11.2757C14.1813 11.2484 14.1173 11.2347 14.0453 11.2347C13.9432 11.2347 13.859 11.2541 13.7928 11.293C13.7266 11.3304 13.6776 11.3822 13.646 11.4484C13.6157 11.5146 13.6006 11.5902 13.6006 11.6751C13.6006 11.7571 13.6165 11.8291 13.6481 11.8909C13.6798 11.9528 13.7338 12.0089 13.81 12.0593C13.8877 12.1082 13.9942 12.1579 14.1295 12.2083C14.3152 12.2745 14.4756 12.3486 14.6109 12.4306C14.7476 12.5112 14.8527 12.6112 14.9261 12.7307C15.0009 12.8487 15.0383 12.9976 15.0383 13.1775C15.0383 13.3632 14.9952 13.5208 14.9088 13.6503C14.8239 13.7798 14.7045 13.8784 14.5505 13.946C14.3979 14.0122 14.2202 14.0453 14.0173 14.0453C13.8892 14.0453 13.7618 14.0288 13.6352 13.9957C13.51 13.9611 13.3963 13.905 13.2941 13.8273C13.1919 13.7496 13.1106 13.6467 13.0502 13.5186C12.9897 13.3891 12.9595 13.2308 12.9595 13.0437H13.4819C13.4819 13.1559 13.497 13.2495 13.5272 13.3243C13.5575 13.3992 13.5985 13.4582 13.6503 13.5013C13.7021 13.5445 13.7597 13.5755 13.823 13.5942C13.8877 13.6129 13.9525 13.6222 14.0173 13.6222C14.1252 13.6222 14.2159 13.6042 14.2893 13.5683C14.3641 13.5308 14.4202 13.479 14.4576 13.4128C14.4965 13.3452 14.5159 13.2682 14.5159 13.1818Z" fill="white"/>
</svg>
