<svg width="28" height="28" viewBox="0 0 28 28" fill="none" xmlns="http://www.w3.org/2000/svg">
<path d="M18.478 25.3299L18.4775 25.3305C17.9711 26.0304 17.3013 26.6019 16.5235 26.9969C15.7457 27.3919 14.8827 27.5988 14.0065 27.6C13.1302 27.6012 12.2666 27.3967 11.4877 27.0038C10.7088 26.6109 10.0374 26.0413 9.52892 25.3428L9.52886 25.3428C6.10529 20.6424 4.93589 14.0963 4.55873 11.387C4.558 11.364 4.55549 11.3411 4.5512 11.3183C4.46563 10.8636 4.41509 10.4032 4.4 9.94108V9.76871C4.41701 7.31835 5.40458 4.96944 7.15555 3.22041C8.90706 1.47085 11.2847 0.459326 13.7847 0.402527C16.2846 0.345729 18.7075 1.2482 20.5396 2.91654C22.3689 4.58225 23.4655 6.88029 23.6 9.32382V11.3657C23.3123 13.5055 22.6159 16.1934 21.696 18.7542C20.771 21.3293 19.6317 23.7428 18.478 25.3299Z" fill="#8468BF" stroke="#714FBB" stroke-width="0.8"/>
<path d="M14 5.75L7.58337 9.25L9.91671 10.5217V13.4282C9.91671 13.794 10.1165 14.1307 10.4377 14.306L13.042 15.7272C13.6391 16.053 14.361 16.053 14.9581 15.7272L17.5624 14.306C17.8836 14.1307 18.0834 13.794 18.0834 13.4282V10.5217L19.25 9.88583V13.9167H20.4167V9.25L14 5.75ZM17.9784 9.25L14 11.42L10.0217 9.25L14 7.08L17.9784 9.25ZM16.9167 12.7389C16.9167 13.1053 16.7164 13.4423 16.3946 13.6174L14.9558 14.4001C14.3599 14.7243 13.6402 14.7243 13.0443 14.4001L11.6055 13.6174C11.2837 13.4423 11.0834 13.1053 11.0834 12.7389V11.1575L14 12.75L16.9167 11.1575V12.7389Z" fill="white"/>
</svg>
