<svg width="28" height="28" viewBox="0 0 28 28" fill="none" xmlns="http://www.w3.org/2000/svg">
<path d="M18.478 25.3299L18.4775 25.3305C17.9711 26.0304 17.3013 26.6019 16.5235 26.9969C15.7457 27.3919 14.8827 27.5988 14.0065 27.6C13.1302 27.6012 12.2666 27.3967 11.4877 27.0038C10.7088 26.6109 10.0374 26.0413 9.52892 25.3428L9.52886 25.3428C6.10529 20.6424 4.93589 14.0963 4.55873 11.387C4.558 11.364 4.55549 11.3411 4.5512 11.3183C4.46563 10.8636 4.41509 10.4032 4.4 9.94108V9.76871C4.41701 7.31835 5.40458 4.96944 7.15555 3.22041C8.90706 1.47085 11.2847 0.459326 13.7847 0.402527C16.2846 0.345729 18.7075 1.2482 20.5396 2.91654C22.3689 4.58225 23.4655 6.88029 23.6 9.32382V11.3657C23.3123 13.5055 22.6159 16.1934 21.696 18.7542C20.771 21.3293 19.6317 23.7428 18.478 25.3299Z" fill="#8468BF" stroke="#714FBB" stroke-width="0.8"/>
<path fill-rule="evenodd" clip-rule="evenodd" d="M16.0164 5.89379L16.0205 5.01917L12.0265 5L12.0224 5.87875C11.5838 6.0571 11.1671 6.2953 10.7855 6.58996L10.039 6.14647L8.01536 9.62786L8.76123 10.071C8.6899 10.5667 8.68877 11.066 8.75379 11.5541L8 11.9915L9.98797 15.4938L10.7382 15.0585C10.9311 15.2108 11.1365 15.3511 11.3539 15.478C11.4516 15.5351 11.5504 15.5886 11.6502 15.6387L11.8704 15.7493V14.7049L11.7948 14.6603C11.4759 14.472 11.1894 14.2491 10.9371 13.9992L10.8547 13.9176L10.3283 14.223L9.25702 12.3356L9.78646 12.0284L9.75849 11.9153C9.58267 11.2046 9.58038 10.4497 9.76999 9.72089L9.79936 9.60798L9.27583 9.29692L10.3664 7.42082L10.8902 7.73205L10.9735 7.65124C11.5016 7.13878 12.1421 6.77692 12.829 6.58383L12.9401 6.55261L12.943 5.93541L15.0953 5.94574L15.0925 6.55937L15.2034 6.59155C15.5398 6.6891 15.87 6.82939 16.1871 7.01446C16.5177 7.20742 16.8137 7.43728 17.0732 7.69585L17.155 7.77739L17.688 7.47343L18.7455 9.36875L18.2182 9.66951L18.246 9.78317C18.4161 10.4793 18.4199 11.2174 18.2401 11.9316L18.2116 12.0447L18.7376 12.3517L17.6614 14.2363L17.1354 13.9292L17.0527 14.0107C16.7943 14.2656 16.5083 14.4839 16.2026 14.6635L16.1268 14.7081V15.7509L16.3467 15.6412C16.6636 15.4832 16.9662 15.2924 17.249 15.0705L17.9985 15.508L19.9955 12.011L19.246 11.5735C19.3107 11.0975 19.3108 10.6187 19.25 10.15L20 9.7222L18.0376 6.20513L17.2772 6.6388C17.0803 6.48228 16.8702 6.33818 16.6475 6.20819C16.4417 6.08803 16.2308 5.98332 16.0164 5.89379Z" fill="white"/>
<path fill-rule="evenodd" clip-rule="evenodd" d="M12.4369 8.78377C12.5514 8.68977 12.6743 8.60591 12.8043 8.53354V11.1078C12.8043 11.3661 12.9784 11.6075 13.1845 11.7745C13.3948 11.9448 13.6752 12.0691 13.9481 12.0691C14.535 12.0691 15.0504 11.6684 15.0895 11.1189L15.0899 11.1134L15.0917 8.48149C15.2231 8.54701 15.3479 8.62398 15.465 8.71113C16.0778 9.16743 16.4749 9.90153 16.4749 10.7294C16.4749 11.8301 15.7726 12.7653 14.7959 13.1014L14.6927 13.1369L14.6894 17H15.6134V13.7524C16.6741 13.1717 17.3958 12.0365 17.3958 10.7294C17.3958 9.26425 16.489 8.01522 15.2147 7.52081L14.171 7.11586L14.171 11.0455L14.171 11.0481C14.1688 11.0519 14.1621 11.0623 14.1443 11.0769C14.1082 11.1065 14.041 11.1381 13.9481 11.1381C13.8552 11.1381 13.7881 11.1065 13.7519 11.0769C13.7339 11.0621 13.7272 11.0516 13.7252 11.0479V7.10561L12.6525 7.57334C11.446 8.09939 10.599 9.31348 10.599 10.7294C10.599 12.0365 11.3206 13.1717 12.3812 13.7524V17H13.3028L13.3021 13.1369L13.1988 13.1013C12.2221 12.7653 11.5198 11.8301 11.5198 10.7294C11.5198 9.94411 11.8771 9.24327 12.4369 8.78377Z" fill="white"/>
</svg>
