<svg width="28" height="28" viewBox="0 0 28 28" fill="none" xmlns="http://www.w3.org/2000/svg">
<path d="M18.478 25.3299L18.4775 25.3305C17.9711 26.0304 17.3013 26.6019 16.5235 26.9969C15.7457 27.3919 14.8827 27.5988 14.0065 27.6C13.1302 27.6012 12.2666 27.3967 11.4877 27.0038C10.7088 26.6109 10.0374 26.0413 9.52892 25.3428L9.52886 25.3428C6.10529 20.6424 4.93589 14.0963 4.55873 11.387C4.558 11.364 4.55549 11.3411 4.5512 11.3183C4.46563 10.8636 4.41509 10.4032 4.4 9.94108V9.76871C4.41701 7.31835 5.40458 4.96944 7.15555 3.22041C8.90706 1.47085 11.2847 0.459326 13.7847 0.402527C16.2846 0.345729 18.7075 1.2482 20.5396 2.91654C22.3689 4.58225 23.4655 6.88029 23.6 9.32382V11.3657C23.3123 13.5055 22.6159 16.1934 21.696 18.7542C20.771 21.3293 19.6317 23.7428 18.478 25.3299Z" fill="#8468BF" stroke="#714FBB" stroke-width="0.8"/>
<g clip-path="url(#clip0_73_270)">
<path d="M14.3535 16.3536L14.7009 16.701L15.0544 16.3597L15.4332 15.9939L15.7929 16.3536L16.1465 16.7071L16.5 16.3536L17.2132 15.6404L17.5921 16.0062L17.9455 16.3474L18.2929 16L19 15.2929L19.3474 14.9455L19.0062 14.5921L18.6404 14.2132L19.3536 13.5L19.7071 13.1465L19.3536 12.7929L18.9939 12.4332L19.3597 12.0544L19.701 11.7009L19.3536 11.3535L18.6465 10.6464L18.2929 10.2929L17.9394 10.6464L16.5 12.0858L12.9142 8.5L14.3536 7.06062L14.7071 6.70707L14.3536 6.35352L13.6465 5.64645L13.2991 5.29904L12.9456 5.6403L12.5668 6.00611L12.2071 5.64645L11.8535 5.29289L11.5 5.64645L10.7868 6.35965L10.4079 5.99383L10.0545 5.65258L9.70705 5.99998L8.99998 6.70705L8.65258 7.05446L8.99383 7.4079L9.35965 7.78678L8.64645 8.49998L8.29289 8.85354L8.64645 9.20709L9.00611 9.56675L8.6403 9.94563L8.29904 10.2991L8.64645 10.6465L9.35352 11.3536L9.70707 11.7071L10.0606 11.3536L11.5 9.91418L15.0858 13.5L13.6464 14.9394L13.2929 15.2929L13.6464 15.6465L14.3535 16.3536Z" stroke="white"/>
</g>
<defs>
<clipPath id="clip0_73_270">
<rect width="14" height="14" fill="white" transform="translate(7 4)"/>
</clipPath>
</defs>
</svg>
