<svg width="30" height="38" viewBox="0 0 30 38" fill="none" xmlns="http://www.w3.org/2000/svg">
<g filter="url(#filter0_d_42_201)">
<path d="M19.8016 30.5651C22.1731 27.3027 24.4196 20.75 25 16.3923V14.3129C24.8624 11.7594 23.7177 9.35893 21.8089 7.62078C19.9001 5.88264 17.3773 4.94352 14.7756 5.00263C12.1738 5.06174 9.69787 6.11443 7.87286 7.93741C6.04786 9.76039 5.01738 12.2102 5 14.7673V14.9475C5.01549 15.4324 5.06834 15.9153 5.1581 16.3923C5.15924 16.3982 5.15924 16.4043 5.1581 16.4102C5.53123 19.1048 6.70514 25.7724 10.2055 30.5783C10.7517 31.3285 11.4724 31.9397 12.3076 32.361C13.1427 32.7822 14.0682 33.0013 15.007 33C15.9458 32.9987 16.8707 32.7771 17.7046 32.3535C18.5386 31.93 19.2576 31.3168 19.8016 30.5651Z" fill="#7FB685"/>
</g>
<path d="M18.4247 10.3615C17.5871 9.87995 16.5928 9.74953 15.6593 9.99874C14.7257 10.2479 13.9287 10.8565 13.4425 11.6915L13.3095 11.9216C13.2806 11.9714 13.2619 12.0264 13.2543 12.0835C13.2467 12.1405 13.2505 12.1985 13.2654 12.2541C13.2802 12.3097 13.3059 12.3618 13.341 12.4075C13.376 12.4531 13.4198 12.4914 13.4696 12.5201L15.7866 13.8519L14.3612 16.343C13.0925 16.5084 12.0162 17.3318 11.3337 18.4378C11.6588 18.3652 11.9992 18.4184 12.2866 18.5865C12.9227 17.7343 13.8441 17.1883 14.832 17.1883C15.8199 17.1883 16.7412 17.7343 17.3765 18.5874C17.6639 18.4182 18.005 18.365 18.3302 18.4386C17.6591 17.3493 16.6065 16.5355 15.364 16.3518L16.5444 14.2868L19.0294 15.7148C19.1296 15.7723 19.2485 15.7878 19.3601 15.758C19.4718 15.7282 19.5671 15.6554 19.6252 15.5555L19.7591 15.3245C19.9988 14.9113 20.1543 14.4548 20.2169 13.9813C20.2795 13.5078 20.2478 13.0265 20.1237 12.5653C19.9996 12.1041 19.7855 11.6719 19.4938 11.2937C19.2021 10.9155 18.8394 10.5987 18.4247 10.3615ZM14.2912 11.9838C14.6107 11.5071 15.0697 11.1408 15.6054 10.9351C16.1412 10.7294 16.7274 10.6944 17.2837 10.8349C16.981 10.9881 16.6918 11.1666 16.4192 11.3686C15.9791 11.7011 15.6387 12.0774 15.2861 12.556L14.2912 11.9829V11.9838ZM16.946 12.0669C17.1892 11.8831 17.4736 11.7134 17.8402 11.5349C17.8875 11.8849 17.898 12.185 17.8612 12.4781C17.8122 12.8631 17.6792 13.2648 17.3992 13.7696L16.05 12.9935C16.3475 12.5998 16.6161 12.3154 16.946 12.066V12.0669ZM19.0836 14.7374L18.1579 14.2054C18.4816 13.6253 18.6627 13.1143 18.7292 12.5875C18.7642 12.311 18.7651 12.0371 18.7441 11.7563C19.0836 12.1668 19.2965 12.6671 19.3567 13.1964C19.417 13.7257 19.3221 14.2611 19.0836 14.7374ZM12.0381 19.5823C12.0082 19.4922 11.9499 19.4144 11.8719 19.3604C11.7939 19.3064 11.7004 19.2792 11.6056 19.283C11.5108 19.2867 11.4198 19.3212 11.3463 19.3812C11.2728 19.4412 11.2208 19.5234 11.1981 19.6155C11.0879 20.0635 10.884 20.298 10.6609 20.4336C10.422 20.578 10.1114 20.6375 9.75 20.6375C9.63397 20.6375 9.52269 20.6836 9.44064 20.7656C9.35859 20.8477 9.3125 20.959 9.3125 21.075C9.3125 21.191 9.35859 21.3023 9.44064 21.3844C9.52269 21.4664 9.63397 21.5125 9.75 21.5125C10.191 21.5125 10.6827 21.4425 11.1132 21.1826C11.3267 21.0531 11.5149 20.8843 11.6697 20.6708C12.5106 21.6158 14.0147 21.6105 14.8329 20.6541C15.665 21.628 17.2094 21.6166 18.0406 20.6191C18.2684 20.8964 18.5544 21.1201 18.8783 21.2745C19.2022 21.4289 19.5561 21.5101 19.9149 21.5125C20.0309 21.5125 20.1422 21.4664 20.2242 21.3844C20.3063 21.3023 20.3524 21.191 20.3524 21.075C20.3524 20.959 20.3063 20.8477 20.2242 20.7656C20.1422 20.6836 20.0309 20.6375 19.9149 20.6375C19.2884 20.6375 18.6645 20.228 18.4589 19.5866C18.4306 19.4989 18.3753 19.4224 18.301 19.368C18.2266 19.3136 18.137 19.284 18.0448 19.2835C17.9527 19.2831 17.8628 19.3117 17.7878 19.3653C17.7129 19.4189 17.6569 19.4949 17.6276 19.5823C17.2207 20.8081 15.6414 20.7871 15.2459 19.6348C15.2161 19.5488 15.1603 19.4742 15.0862 19.4215C15.0121 19.3687 14.9234 19.3403 14.8324 19.3403C14.7415 19.3403 14.6528 19.3687 14.5787 19.4215C14.5046 19.4742 14.4488 19.5488 14.419 19.6348C14.0226 20.7871 12.4441 20.8081 12.0381 19.5823Z" fill="#F5F5F5"/>
<defs>
<filter id="filter0_d_42_201" x="0.6" y="0.6" width="28.8" height="36.8" filterUnits="userSpaceOnUse" color-interpolation-filters="sRGB">
<feFlood flood-opacity="0" result="BackgroundImageFix"/>
<feColorMatrix in="SourceAlpha" type="matrix" values="0 0 0 0 0 0 0 0 0 0 0 0 0 0 0 0 0 0 127 0" result="hardAlpha"/>
<feOffset/>
<feGaussianBlur stdDeviation="2.2"/>
<feComposite in2="hardAlpha" operator="out"/>
<feColorMatrix type="matrix" values="0 0 0 0 0.203438 0 0 0 0 0.314198 0 0 0 0 0.361667 0 0 0 0.36 0"/>
<feBlend mode="normal" in2="BackgroundImageFix" result="effect1_dropShadow_42_201"/>
<feBlend mode="normal" in="SourceGraphic" in2="effect1_dropShadow_42_201" result="shape"/>
</filter>
</defs>
</svg>
