<svg width="30" height="38" viewBox="0 0 30 38" fill="none" xmlns="http://www.w3.org/2000/svg">
<g filter="url(#filter0_d_42_193)">
<path d="M19.8016 30.5651C22.1731 27.3027 24.4196 20.75 25 16.3923V14.3129C24.8624 11.7594 23.7177 9.35893 21.8089 7.62078C19.9001 5.88264 17.3773 4.94352 14.7756 5.00263C12.1738 5.06174 9.69787 6.11443 7.87286 7.93741C6.04786 9.76039 5.01738 12.2102 5 14.7673V14.9475C5.01549 15.4324 5.06834 15.9153 5.1581 16.3923C5.15924 16.3982 5.15924 16.4043 5.1581 16.4102C5.53123 19.1048 6.70514 25.7724 10.2055 30.5783C10.7517 31.3285 11.4724 31.9397 12.3076 32.361C13.1427 32.7822 14.0682 33.0013 15.007 33C15.9458 32.9987 16.8707 32.7771 17.7046 32.3535C18.5386 31.93 19.2576 31.3168 19.8016 30.5651Z" fill="#7FB685"/>
</g>
<path d="M15.364 9.19512C15.324 9.1352 15.2699 9.08607 15.2064 9.05209C15.1429 9.01811 15.072 9.00034 15 9.00034C14.928 9.00034 14.8571 9.01811 14.7936 9.05209C14.7301 9.08607 14.6759 9.1352 14.636 9.19512L12.011 13.1326C11.9671 13.1985 11.942 13.275 11.9382 13.3541C11.9344 13.4331 11.9522 13.5117 11.9895 13.5815C12.0269 13.6513 12.0824 13.7096 12.1503 13.7503C12.2182 13.791 12.2958 13.8125 12.375 13.8125H12.4607L10.6915 16.6431C10.6501 16.7093 10.6272 16.7854 10.6251 16.8635C10.6231 16.9416 10.642 17.0188 10.6798 17.0871C10.7177 17.1554 10.7731 17.2123 10.8404 17.252C10.9077 17.2916 10.9844 17.3125 11.0625 17.3125H11.2296L9.79636 20.179C9.76294 20.2457 9.74713 20.3198 9.75043 20.3944C9.75373 20.4689 9.77604 20.5414 9.81524 20.6048C9.85443 20.6683 9.90921 20.7207 9.97436 20.7571C10.0395 20.7934 10.1129 20.8125 10.1875 20.8125H14.125V23H15.875V20.8125H19.8125C19.8871 20.8125 19.9605 20.7934 20.0256 20.7571C20.0908 20.7207 20.1455 20.6683 20.1847 20.6048C20.2239 20.5414 20.2462 20.4689 20.2495 20.3944C20.2528 20.3198 20.237 20.2457 20.2036 20.179L18.7712 17.3125H18.9384C19.0165 17.3125 19.0931 17.2916 19.1604 17.252C19.2277 17.2123 19.2832 17.1554 19.321 17.0871C19.3589 17.0188 19.3778 16.9416 19.3757 16.8635C19.3737 16.7854 19.3508 16.7093 19.3094 16.6431L17.5392 13.8125H17.625C17.7041 13.8125 17.7818 13.791 17.8496 13.7503C17.9175 13.7096 17.9731 13.6513 18.0105 13.5815C18.0478 13.5117 18.0655 13.4331 18.0618 13.3541C18.058 13.275 18.0328 13.1985 17.989 13.1326L15.364 9.19512ZM13.6324 13.1632C13.5946 13.0949 13.5392 13.038 13.4719 12.9983C13.4047 12.9586 13.3281 12.9376 13.25 12.9375H13.1922L15 10.2259L16.8077 12.9375H16.75C16.6719 12.9375 16.5952 12.9584 16.5279 12.998C16.4606 13.0377 16.4052 13.0946 16.3673 13.1629C16.3295 13.2312 16.3106 13.3084 16.3126 13.3865C16.3147 13.4645 16.3376 13.5406 16.379 13.6069L18.1482 16.4375H18.0625C17.9879 16.4375 17.9145 16.4566 17.8494 16.4929C17.7842 16.5293 17.7294 16.5817 17.6902 16.6452C17.651 16.7086 17.6287 16.7811 17.6254 16.8556C17.6221 16.9302 17.6379 17.0043 17.6714 17.071L19.1037 19.9375H10.8954L12.3286 17.071C12.362 17.0043 12.3778 16.9302 12.3745 16.8556C12.3712 16.7811 12.3489 16.7086 12.3097 16.6452C12.2705 16.5817 12.2158 16.5293 12.1506 16.4929C12.0855 16.4566 12.0121 16.4375 11.9375 16.4375H11.8517L13.621 13.6069C13.6623 13.5407 13.6851 13.4646 13.6871 13.3866C13.6891 13.3086 13.6702 13.2315 13.6324 13.1632Z" fill="#F5F5F5"/>
<defs>
<filter id="filter0_d_42_193" x="0.6" y="0.6" width="28.8" height="36.8" filterUnits="userSpaceOnUse" color-interpolation-filters="sRGB">
<feFlood flood-opacity="0" result="BackgroundImageFix"/>
<feColorMatrix in="SourceAlpha" type="matrix" values="0 0 0 0 0 0 0 0 0 0 0 0 0 0 0 0 0 0 127 0" result="hardAlpha"/>
<feOffset/>
<feGaussianBlur stdDeviation="2.2"/>
<feComposite in2="hardAlpha" operator="out"/>
<feColorMatrix type="matrix" values="0 0 0 0 0.203438 0 0 0 0 0.314198 0 0 0 0 0.361667 0 0 0 0.36 0"/>
<feBlend mode="normal" in2="BackgroundImageFix" result="effect1_dropShadow_42_193"/>
<feBlend mode="normal" in="SourceGraphic" in2="effect1_dropShadow_42_193" result="shape"/>
</filter>
</defs>
</svg>
