<svg width="30" height="38" viewBox="0 0 30 38" fill="none" xmlns="http://www.w3.org/2000/svg">
<g filter="url(#filter0_d_42_134)">
<path d="M19.8016 30.5651C22.1731 27.3027 24.4196 20.75 25 16.3923V14.3129C24.8624 11.7594 23.7177 9.35893 21.8089 7.62078C19.9001 5.88264 17.3773 4.94352 14.7756 5.00263C12.1738 5.06174 9.69787 6.11443 7.87286 7.93741C6.04786 9.76039 5.01738 12.2102 5 14.7673V14.9475C5.01549 15.4324 5.06834 15.9153 5.1581 16.3923C5.15924 16.3982 5.15924 16.4043 5.1581 16.4102C5.53123 19.1048 6.70514 25.7724 10.2055 30.5783C10.7517 31.3285 11.4724 31.9397 12.3076 32.361C13.1427 32.7822 14.0682 33.0013 15.007 33C15.9458 32.9987 16.8707 32.7771 17.7046 32.3535C18.5386 31.93 19.2576 31.3168 19.8016 30.5651Z" fill="#8468BF"/>
</g>
<path fill-rule="evenodd" clip-rule="evenodd" d="M20.7038 13.076L15.19 10L9.31635 12.9935C9.12154 13.0928 9 13.2857 9 13.4955V13.8118C9 14.1265 9.26886 14.3816 9.60051 14.3816H20.3995C20.7311 14.3816 21 14.1265 21 13.8118V13.5671C21 13.3652 20.8873 13.1783 20.7038 13.076ZM18.0144 13.0667H12.0233L15.1427 11.4935L18.0144 13.0667Z" fill="white"/>
<path d="M11.8821 15.179H10.4963V19.669H11.8821V15.179Z" fill="white"/>
<path d="M19.5037 15.179H18.1179V19.669H19.5037V15.179Z" fill="white"/>
<path d="M20.3995 20.6851H9.60051C9.26886 20.6851 9 20.9402 9 21.2549V21.4302C9 21.7449 9.26886 22 9.60051 22H20.3995C20.7311 22 21 21.7449 21 21.4302V21.2549C21 20.9402 20.7311 20.6851 20.3995 20.6851Z" fill="white"/>
<path d="M15.231 15.3539V15.9994H14.8985V15.3539H15.231ZM15.19 18.8791V19.4576H14.8597V18.8791H15.19ZM15.5159 18.1818C15.5159 18.0984 15.4987 18.0257 15.4641 17.9638C15.431 17.9005 15.3763 17.8436 15.3001 17.7933C15.2238 17.7415 15.1216 17.6933 14.9935 17.6486C14.8093 17.5839 14.6481 17.5112 14.51 17.4306C14.3733 17.3486 14.2668 17.2478 14.1905 17.1284C14.1156 17.0075 14.0782 16.8571 14.0782 16.6772C14.0782 16.5002 14.1185 16.3469 14.1991 16.2174C14.2811 16.0879 14.3948 15.9879 14.5402 15.9174C14.6855 15.8468 14.8554 15.8116 15.0497 15.8116C15.1993 15.8116 15.3339 15.8339 15.4533 15.8785C15.5742 15.9231 15.6771 15.9886 15.762 16.0749C15.8469 16.1613 15.9117 16.2678 15.9563 16.3944C16.0024 16.5196 16.0254 16.6635 16.0254 16.8262H15.5073C15.5073 16.7341 15.4965 16.652 15.4749 16.5801C15.4548 16.5067 15.4245 16.4448 15.3843 16.3944C15.344 16.3426 15.295 16.303 15.2375 16.2757C15.1813 16.2484 15.1173 16.2347 15.0453 16.2347C14.9432 16.2347 14.859 16.2541 14.7928 16.293C14.7266 16.3304 14.6776 16.3822 14.646 16.4484C14.6157 16.5146 14.6006 16.5902 14.6006 16.6751C14.6006 16.7571 14.6165 16.8291 14.6481 16.8909C14.6798 16.9528 14.7338 17.0089 14.81 17.0593C14.8877 17.1082 14.9942 17.1579 15.1295 17.2083C15.3152 17.2745 15.4756 17.3486 15.6109 17.4306C15.7476 17.5112 15.8527 17.6112 15.9261 17.7307C16.0009 17.8487 16.0383 17.9976 16.0383 18.1775C16.0383 18.3632 15.9952 18.5208 15.9088 18.6503C15.8239 18.7798 15.7045 18.8784 15.5505 18.946C15.3979 19.0122 15.2202 19.0453 15.0173 19.0453C14.8892 19.0453 14.7618 19.0288 14.6352 18.9957C14.51 18.9611 14.3963 18.905 14.2941 18.8273C14.1919 18.7496 14.1106 18.6467 14.0502 18.5186C13.9897 18.3891 13.9595 18.2308 13.9595 18.0437H14.4819C14.4819 18.1559 14.497 18.2495 14.5272 18.3243C14.5575 18.3992 14.5985 18.4582 14.6503 18.5013C14.7021 18.5445 14.7597 18.5755 14.823 18.5942C14.8877 18.6129 14.9525 18.6222 15.0173 18.6222C15.1252 18.6222 15.2159 18.6042 15.2893 18.5683C15.3641 18.5308 15.4202 18.479 15.4576 18.4128C15.4965 18.3452 15.5159 18.2682 15.5159 18.1818Z" fill="white"/>
<defs>
<filter id="filter0_d_42_134" x="0.6" y="0.6" width="28.8" height="36.8" filterUnits="userSpaceOnUse" color-interpolation-filters="sRGB">
<feFlood flood-opacity="0" result="BackgroundImageFix"/>
<feColorMatrix in="SourceAlpha" type="matrix" values="0 0 0 0 0 0 0 0 0 0 0 0 0 0 0 0 0 0 127 0" result="hardAlpha"/>
<feOffset/>
<feGaussianBlur stdDeviation="2.2"/>
<feComposite in2="hardAlpha" operator="out"/>
<feColorMatrix type="matrix" values="0 0 0 0 0.203438 0 0 0 0 0.314198 0 0 0 0 0.361667 0 0 0 0.36 0"/>
<feBlend mode="normal" in2="BackgroundImageFix" result="effect1_dropShadow_42_134"/>
<feBlend mode="normal" in="SourceGraphic" in2="effect1_dropShadow_42_134" result="shape"/>
</filter>
</defs>
</svg>
