<svg width="30" height="38" viewBox="0 0 30 38" fill="none" xmlns="http://www.w3.org/2000/svg">
<g filter="url(#filter0_d_42_133)">
<path d="M19.8016 30.5651C22.1731 27.3027 24.4196 20.75 25 16.3923V14.3129C24.8624 11.7594 23.7177 9.35893 21.8089 7.62078C19.9001 5.88264 17.3773 4.94352 14.7756 5.00263C12.1738 5.06174 9.69787 6.11443 7.87286 7.93741C6.04786 9.76039 5.01738 12.2102 5 14.7673V14.9475C5.01549 15.4324 5.06834 15.9153 5.1581 16.3923C5.15924 16.3982 5.15924 16.4043 5.1581 16.4102C5.53123 19.1048 6.70514 25.7724 10.2055 30.5783C10.7517 31.3285 11.4724 31.9397 12.3076 32.361C13.1427 32.7822 14.0682 33.0013 15.007 33C15.9458 32.9987 16.8707 32.7771 17.7046 32.3535C18.5386 31.93 19.2576 31.3168 19.8016 30.5651Z" fill="#8468BF"/>
</g>
<path fill-rule="evenodd" clip-rule="evenodd" d="M13.6686 15.1368L14.5032 14.3171L10.1653 10.0569C10.0443 9.93813 9.83731 10.0171 9.82965 10.1849L9.78191 11.2309C9.77943 11.285 9.80027 11.3378 9.83933 11.3761L13.6686 15.1368Z" fill="white"/>
<path fill-rule="evenodd" clip-rule="evenodd" d="M11.5574 22C12.9698 22 14.1148 20.8756 14.1148 19.4885C14.1148 18.8807 13.8948 18.3232 13.529 17.8888L14.7735 16.6667C14.8887 16.5535 15.0756 16.5535 15.1908 16.6667L16.4549 17.9081C16.0987 18.3397 15.8852 18.8897 15.8852 19.4885C15.8852 20.8756 17.0302 22 18.4426 22C19.855 22 21 20.8756 21 19.4885C21 18.1014 19.855 16.9769 18.4426 16.9769C18.0708 16.9769 17.7173 17.0549 17.3983 17.1952L16.0254 15.847C15.9102 15.7338 15.9102 15.5504 16.0254 15.4372L20.1028 11.4329C20.1397 11.3967 20.1604 11.3476 20.1604 11.2963V10.2035C20.1604 10.0313 19.9485 9.94515 19.8246 10.0669L12.577 17.1845C12.2645 17.051 11.9196 16.9769 11.5574 16.9769C10.145 16.9769 9 18.1014 9 19.4885C9 20.8756 10.145 22 11.5574 22ZM12.9344 19.4885C12.9344 20.2354 12.3179 20.8408 11.5574 20.8408C10.7969 20.8408 10.1803 20.2354 10.1803 19.4885C10.1803 18.7416 10.7969 18.1361 11.5574 18.1361C12.3179 18.1361 12.9344 18.7416 12.9344 19.4885ZM19.8197 19.4885C19.8197 20.2354 19.2031 20.8408 18.4426 20.8408C17.6821 20.8408 17.0656 20.2354 17.0656 19.4885C17.0656 18.7416 17.6821 18.1361 18.4426 18.1361C19.2031 18.1361 19.8197 18.7416 19.8197 19.4885Z" fill="white"/>
<defs>
<filter id="filter0_d_42_133" x="0.6" y="0.6" width="28.8" height="36.8" filterUnits="userSpaceOnUse" color-interpolation-filters="sRGB">
<feFlood flood-opacity="0" result="BackgroundImageFix"/>
<feColorMatrix in="SourceAlpha" type="matrix" values="0 0 0 0 0 0 0 0 0 0 0 0 0 0 0 0 0 0 127 0" result="hardAlpha"/>
<feOffset/>
<feGaussianBlur stdDeviation="2.2"/>
<feComposite in2="hardAlpha" operator="out"/>
<feColorMatrix type="matrix" values="0 0 0 0 0.203438 0 0 0 0 0.314198 0 0 0 0 0.361667 0 0 0 0.36 0"/>
<feBlend mode="normal" in2="BackgroundImageFix" result="effect1_dropShadow_42_133"/>
<feBlend mode="normal" in="SourceGraphic" in2="effect1_dropShadow_42_133" result="shape"/>
</filter>
</defs>
</svg>
