<svg width="30" height="38" viewBox="0 0 30 38" fill="none" xmlns="http://www.w3.org/2000/svg">
<g filter="url(#filter0_d_42_550)">
<path d="M19.8016 30.5651C22.1731 27.3027 24.4196 20.75 25 16.3923V14.3129C24.8624 11.7594 23.7177 9.35893 21.8089 7.62078C19.9001 5.88264 17.3773 4.94352 14.7756 5.00263C12.1738 5.06174 9.69787 6.11443 7.87286 7.93741C6.04786 9.76039 5.01738 12.2102 5 14.7673V14.9475C5.01549 15.4324 5.06834 15.9153 5.1581 16.3923C5.15924 16.3982 5.15924 16.4043 5.1581 16.4102C5.53123 19.1048 6.70514 25.7724 10.2055 30.5783C10.7517 31.3285 11.4724 31.9397 12.3076 32.361C13.1427 32.7822 14.0682 33.0013 15.007 33C15.9458 32.9987 16.8707 32.7771 17.7046 32.3535C18.5386 31.93 19.2576 31.3168 19.8016 30.5651Z" fill="#8468BF"/>
</g>
<path d="M15 10.75L8.58331 14.25L10.9166 15.5217V18.4282C10.9166 18.794 11.1165 19.1307 11.4376 19.306L14.0419 20.7272C14.6391 21.053 15.3609 21.053 15.958 20.7272L18.5623 19.306C18.8835 19.1307 19.0833 18.794 19.0833 18.4282V15.5217L20.25 14.8858V18.9167H21.4166V14.25L15 10.75ZM18.9783 14.25L15 16.42L11.0216 14.25L15 12.08L18.9783 14.25ZM17.9166 17.7389C17.9166 18.1053 17.7163 18.4423 17.3945 18.6174L15.9557 19.4001C15.3598 19.7243 14.6402 19.7243 14.0442 19.4001L12.6054 18.6174C12.2836 18.4423 12.0833 18.1053 12.0833 17.7389V16.1575L15 17.75L17.9166 16.1575V17.7389Z" fill="white"/>
<defs>
<filter id="filter0_d_42_550" x="0.6" y="0.6" width="28.8" height="36.8" filterUnits="userSpaceOnUse" color-interpolation-filters="sRGB">
<feFlood flood-opacity="0" result="BackgroundImageFix"/>
<feColorMatrix in="SourceAlpha" type="matrix" values="0 0 0 0 0 0 0 0 0 0 0 0 0 0 0 0 0 0 127 0" result="hardAlpha"/>
<feOffset/>
<feGaussianBlur stdDeviation="2.2"/>
<feComposite in2="hardAlpha" operator="out"/>
<feColorMatrix type="matrix" values="0 0 0 0 0.203438 0 0 0 0 0.314198 0 0 0 0 0.361667 0 0 0 0.36 0"/>
<feBlend mode="normal" in2="BackgroundImageFix" result="effect1_dropShadow_42_550"/>
<feBlend mode="normal" in="SourceGraphic" in2="effect1_dropShadow_42_550" result="shape"/>
</filter>
</defs>
</svg>
