<svg width="30" height="38" viewBox="0 0 30 38" fill="none" xmlns="http://www.w3.org/2000/svg">
<g filter="url(#filter0_d_42_173)">
<path d="M19.8016 30.5651C22.1731 27.3027 24.4196 20.75 25 16.3923V14.3129C24.8624 11.7594 23.7177 9.35893 21.8089 7.62078C19.9001 5.88264 17.3773 4.94352 14.7756 5.00263C12.1738 5.06174 9.69787 6.11443 7.87286 7.93741C6.04786 9.76039 5.01738 12.2102 5 14.7673V14.9475C5.01549 15.4324 5.06834 15.9153 5.1581 16.3923C5.15924 16.3982 5.15924 16.4043 5.1581 16.4102C5.53123 19.1048 6.70514 25.7724 10.2055 30.5783C10.7517 31.3285 11.4724 31.9397 12.3076 32.361C13.1427 32.7822 14.0682 33.0013 15.007 33C15.9458 32.9987 16.8707 32.7771 17.7046 32.3535C18.5386 31.93 19.2576 31.3168 19.8016 30.5651Z" fill="#8468BF"/>
</g>
<path fill-rule="evenodd" clip-rule="evenodd" d="M17.0164 10.8938L17.0205 10.0192L13.0265 10L13.0224 10.8788C12.5838 11.0571 12.1671 11.2953 11.7855 11.59L11.039 11.1465L9.01536 14.6279L9.76123 15.071C9.6899 15.5667 9.68877 16.066 9.75379 16.5541L9 16.9915L10.988 20.4938L11.7382 20.0585C11.9311 20.2108 12.1365 20.3511 12.3539 20.478C12.4516 20.5351 12.5504 20.5886 12.6502 20.6387L12.8704 20.7493V19.7049L12.7948 19.6603C12.4759 19.472 12.1894 19.2491 11.9371 18.9992L11.8547 18.9176L11.3283 19.223L10.257 17.3356L10.7865 17.0284L10.7585 16.9153C10.5827 16.2046 10.5804 15.4497 10.77 14.7209L10.7994 14.608L10.2758 14.2969L11.3664 12.4208L11.8902 12.732L11.9735 12.6512C12.5016 12.1388 13.1421 11.7769 13.829 11.5838L13.9401 11.5526L13.943 10.9354L16.0953 10.9457L16.0925 11.5594L16.2034 11.5915C16.5398 11.6891 16.87 11.8294 17.1871 12.0145C17.5177 12.2074 17.8137 12.4373 18.0732 12.6959L18.155 12.7774L18.688 12.4734L19.7455 14.3687L19.2182 14.6695L19.246 14.7832C19.4161 15.4793 19.4199 16.2174 19.2401 16.9316L19.2116 17.0447L19.7376 17.3517L18.6614 19.2363L18.1354 18.9292L18.0527 19.0107C17.7943 19.2656 17.5083 19.4839 17.2026 19.6635L17.1268 19.7081V20.7509L17.3467 20.6412C17.6636 20.4832 17.9662 20.2924 18.249 20.0705L18.9985 20.508L20.9955 17.011L20.246 16.5735C20.3107 16.0975 20.3108 15.6187 20.25 15.15L21 14.7222L19.0376 11.2051L18.2772 11.6388C18.0803 11.4823 17.8702 11.3382 17.6475 11.2082C17.4417 11.088 17.2308 10.9833 17.0164 10.8938Z" fill="white"/>
<path fill-rule="evenodd" clip-rule="evenodd" d="M13.4369 13.7838C13.5514 13.6898 13.6743 13.6059 13.8043 13.5335V16.1078C13.8043 16.3661 13.9784 16.6075 14.1845 16.7745C14.3948 16.9448 14.6752 17.0691 14.9481 17.0691C15.535 17.0691 16.0504 16.6684 16.0895 16.1189L16.0899 16.1134L16.0917 13.4815C16.2231 13.547 16.3479 13.624 16.465 13.7111C17.0778 14.1674 17.4749 14.9015 17.4749 15.7294C17.4749 16.8301 16.7726 17.7653 15.7959 18.1014L15.6927 18.1369L15.6894 22H16.6134V18.7524C17.6741 18.1717 18.3958 17.0365 18.3958 15.7294C18.3958 14.2643 17.489 13.0152 16.2147 12.5208L15.171 12.1159L15.171 16.0455L15.171 16.0481C15.1688 16.0519 15.1621 16.0623 15.1443 16.0769C15.1082 16.1065 15.041 16.1381 14.9481 16.1381C14.8552 16.1381 14.7881 16.1065 14.7519 16.0769C14.7339 16.0621 14.7272 16.0516 14.7252 16.0479V12.1056L13.6525 12.5733C12.446 13.0994 11.599 14.3135 11.599 15.7294C11.599 17.0365 12.3206 18.1717 13.3812 18.7524V22H14.3028L14.3021 18.1369L14.1988 18.1013C13.2221 17.7653 12.5198 16.8301 12.5198 15.7294C12.5198 14.9441 12.8771 14.2433 13.4369 13.7838Z" fill="white"/>
<defs>
<filter id="filter0_d_42_173" x="0.6" y="0.6" width="28.8" height="36.8" filterUnits="userSpaceOnUse" color-interpolation-filters="sRGB">
<feFlood flood-opacity="0" result="BackgroundImageFix"/>
<feColorMatrix in="SourceAlpha" type="matrix" values="0 0 0 0 0 0 0 0 0 0 0 0 0 0 0 0 0 0 127 0" result="hardAlpha"/>
<feOffset/>
<feGaussianBlur stdDeviation="2.2"/>
<feComposite in2="hardAlpha" operator="out"/>
<feColorMatrix type="matrix" values="0 0 0 0 0.203438 0 0 0 0 0.314198 0 0 0 0 0.361667 0 0 0 0.36 0"/>
<feBlend mode="normal" in2="BackgroundImageFix" result="effect1_dropShadow_42_173"/>
<feBlend mode="normal" in="SourceGraphic" in2="effect1_dropShadow_42_173" result="shape"/>
</filter>
</defs>
</svg>
