<svg width="30" height="38" viewBox="0 0 30 38" fill="none" xmlns="http://www.w3.org/2000/svg">
<g filter="url(#filter0_d_42_161)">
<path d="M19.8016 30.5651C22.1731 27.3027 24.4196 20.75 25 16.3923V14.3129C24.8624 11.7594 23.7177 9.35893 21.8089 7.62078C19.9001 5.88264 17.3773 4.94352 14.7756 5.00263C12.1738 5.06174 9.69787 6.11443 7.87286 7.93741C6.04786 9.76039 5.01738 12.2102 5 14.7673V14.9475C5.01549 15.4324 5.06834 15.9153 5.1581 16.3923C5.15924 16.3982 5.15924 16.4043 5.1581 16.4102C5.53123 19.1048 6.70514 25.7724 10.2055 30.5783C10.7517 31.3285 11.4724 31.9397 12.3076 32.361C13.1427 32.7822 14.0682 33.0013 15.007 33C15.9458 32.9987 16.8707 32.7771 17.7046 32.3535C18.5386 31.93 19.2576 31.3168 19.8016 30.5651Z" fill="#8468BF"/>
</g>
<path d="M13.3824 10.4H12.7824V11V13.7823L10 13.7823H9.4V14.3823V17.6177V18.2176H10H12.7824V21V21.6H13.3824H16.6177H17.2177V21V18.2176H20H20.6V17.6176V14.3823V13.7823H20L17.2177 13.7823V11V10.4H16.6177H13.3824Z" stroke="white" stroke-width="1.2"/>
<defs>
<filter id="filter0_d_42_161" x="0.6" y="0.6" width="28.8" height="36.8" filterUnits="userSpaceOnUse" color-interpolation-filters="sRGB">
<feFlood flood-opacity="0" result="BackgroundImageFix"/>
<feColorMatrix in="SourceAlpha" type="matrix" values="0 0 0 0 0 0 0 0 0 0 0 0 0 0 0 0 0 0 127 0" result="hardAlpha"/>
<feOffset/>
<feGaussianBlur stdDeviation="2.2"/>
<feComposite in2="hardAlpha" operator="out"/>
<feColorMatrix type="matrix" values="0 0 0 0 0.203438 0 0 0 0 0.314198 0 0 0 0 0.361667 0 0 0 0.36 0"/>
<feBlend mode="normal" in2="BackgroundImageFix" result="effect1_dropShadow_42_161"/>
<feBlend mode="normal" in="SourceGraphic" in2="effect1_dropShadow_42_161" result="shape"/>
</filter>
</defs>
</svg>
