<svg width="30" height="38" viewBox="0 0 30 38" fill="none" xmlns="http://www.w3.org/2000/svg">
<g filter="url(#filter0_d_42_132)">
<path d="M19.8016 30.5651C22.1731 27.3027 24.4196 20.75 25 16.3923V14.3129C24.8624 11.7594 23.7177 9.35893 21.8089 7.62078C19.9001 5.88264 17.3773 4.94352 14.7756 5.00263C12.1738 5.06174 9.69787 6.11443 7.87286 7.93741C6.04786 9.76039 5.01738 12.2102 5 14.7673V14.9475C5.01549 15.4324 5.06834 15.9153 5.1581 16.3923C5.15924 16.3982 5.15924 16.4043 5.1581 16.4102C5.53123 19.1048 6.70514 25.7724 10.2055 30.5783C10.7517 31.3285 11.4724 31.9397 12.3076 32.361C13.1427 32.7822 14.0682 33.0013 15.007 33C15.9458 32.9987 16.8707 32.7771 17.7046 32.3535C18.5386 31.93 19.2576 31.3168 19.8016 30.5651Z" fill="#8468BF"/>
</g>
<g clip-path="url(#clip0_42_132)">
<path d="M15.3535 21.3536L15.7009 21.701L16.0544 21.3597L16.4332 20.9939L16.7929 21.3536L17.1465 21.7071L17.5 21.3536L18.2132 20.6404L18.5921 21.0062L18.9455 21.3474L19.2929 21L20 20.2929L20.3474 19.9455L20.0062 19.5921L19.6404 19.2132L20.3536 18.5L20.7071 18.1465L20.3536 17.7929L19.9939 17.4332L20.3597 17.0544L20.701 16.7009L20.3536 16.3535L19.6465 15.6464L19.2929 15.2929L18.9394 15.6464L17.5 17.0858L13.9142 13.5L15.3536 12.0606L15.7071 11.7071L15.3536 11.3535L14.6465 10.6464L14.2991 10.299L13.9456 10.6403L13.5668 11.0061L13.2071 10.6464L12.8535 10.2929L12.5 10.6464L11.7868 11.3596L11.4079 10.9938L11.0545 10.6526L10.7071 11L9.99998 11.7071L9.65258 12.0545L9.99383 12.4079L10.3596 12.7868L9.64645 13.5L9.29289 13.8535L9.64645 14.2071L10.0061 14.5668L9.6403 14.9456L9.29904 15.2991L9.64645 15.6465L10.3535 16.3536L10.7071 16.7071L11.0606 16.3536L12.5 14.9142L16.0858 18.5L14.6464 19.9394L14.2929 20.2929L14.6464 20.6465L15.3535 21.3536Z" stroke="white"/>
</g>
<defs>
<filter id="filter0_d_42_132" x="0.6" y="0.6" width="28.8" height="36.8" filterUnits="userSpaceOnUse" color-interpolation-filters="sRGB">
<feFlood flood-opacity="0" result="BackgroundImageFix"/>
<feColorMatrix in="SourceAlpha" type="matrix" values="0 0 0 0 0 0 0 0 0 0 0 0 0 0 0 0 0 0 127 0" result="hardAlpha"/>
<feOffset/>
<feGaussianBlur stdDeviation="2.2"/>
<feComposite in2="hardAlpha" operator="out"/>
<feColorMatrix type="matrix" values="0 0 0 0 0.203438 0 0 0 0 0.314198 0 0 0 0 0.361667 0 0 0 0.36 0"/>
<feBlend mode="normal" in2="BackgroundImageFix" result="effect1_dropShadow_42_132"/>
<feBlend mode="normal" in="SourceGraphic" in2="effect1_dropShadow_42_132" result="shape"/>
</filter>
<clipPath id="clip0_42_132">
<rect width="14" height="14" fill="white" transform="translate(8 9)"/>
</clipPath>
</defs>
</svg>
