<svg width="30" height="38" viewBox="0 0 30 38" fill="none" xmlns="http://www.w3.org/2000/svg">
<g filter="url(#filter0_d_42_576)">
<path d="M19.8016 30.5651C22.1731 27.3027 24.4196 20.75 25 16.3923V14.3129C24.8624 11.7594 23.7177 9.35893 21.8089 7.62078C19.9001 5.88264 17.3773 4.94352 14.7756 5.00263C12.1738 5.06174 9.69787 6.11443 7.87286 7.93741C6.04786 9.76039 5.01738 12.2102 5 14.7673V14.9475C5.01549 15.4324 5.06834 15.9153 5.1581 16.3923C5.15924 16.3982 5.15924 16.4043 5.1581 16.4102C5.53123 19.1048 6.70514 25.7724 10.2055 30.5783C10.7517 31.3285 11.4724 31.9397 12.3076 32.361C13.1427 32.7822 14.0682 33.0013 15.007 33C15.9458 32.9987 16.8707 32.7771 17.7046 32.3535C18.5386 31.93 19.2576 31.3168 19.8016 30.5651Z" fill="#476BC6"/>
</g>
<path d="M12.5208 12.5C12.4048 12.5 12.2935 12.5461 12.2115 12.6281C12.1294 12.7102 12.0833 12.8215 12.0833 12.9375V15.5625C12.0833 15.804 12.2793 16 12.5208 16H15.7292C15.8452 16 15.9565 15.9539 16.0385 15.8719C16.1206 15.7898 16.1667 15.6785 16.1667 15.5625V12.9375C16.1667 12.8215 16.1206 12.7102 16.0385 12.6281C15.9565 12.5461 15.8452 12.5 15.7292 12.5H12.5208ZM12.9583 15.125V13.375H15.2917V15.125H12.9583ZM11.9375 10.75C11.512 10.75 11.104 10.919 10.8032 11.2198C10.5023 11.5207 10.3333 11.9287 10.3333 12.3542V20.9583H10.1875C10.0715 20.9583 9.96019 21.0044 9.87814 21.0865C9.79609 21.1685 9.75 21.2798 9.75 21.3958C9.75 21.5119 9.79609 21.6231 9.87814 21.7052C9.96019 21.7872 10.0715 21.8333 10.1875 21.8333H18.0625C18.1785 21.8333 18.2898 21.7872 18.3719 21.7052C18.4539 21.6231 18.5 21.5119 18.5 21.3958C18.5 21.2798 18.4539 21.1685 18.3719 21.0865C18.2898 21.0044 18.1785 20.9583 18.0625 20.9583H17.9167V19.9066C18.1608 20.0321 18.4331 20.0927 18.7074 20.0827C18.9817 20.0726 19.2488 19.9922 19.4831 19.8492C19.7174 19.7061 19.911 19.5053 20.0453 19.2659C20.1796 19.0265 20.2501 18.7566 20.25 18.4821V15.0766C20.25 14.7295 20.1374 14.3918 19.9292 14.1141L19.2875 13.2583C19.2179 13.1655 19.1142 13.1041 18.9994 13.0877C18.8845 13.0713 18.7678 13.1012 18.675 13.1708C18.5822 13.2405 18.5208 13.3441 18.5044 13.459C18.488 13.5738 18.5179 13.6905 18.5875 13.7833L19.2292 14.6391C19.3237 14.7651 19.375 14.9191 19.375 15.0766V18.4821C19.375 18.5775 19.3562 18.6719 19.3197 18.76C19.2832 18.8481 19.2297 18.9282 19.1623 18.9956C19.0948 19.0631 19.0148 19.1166 18.9267 19.1531C18.8386 19.1895 18.7441 19.2083 18.6487 19.2083C18.5534 19.2083 18.4589 19.1895 18.3708 19.1531C18.2827 19.1166 18.2027 19.0631 18.1352 18.9956C18.0678 18.9282 18.0143 18.8481 17.9778 18.76C17.9413 18.6719 17.9225 18.5775 17.9225 18.4821V17.4583C17.9224 17.4347 17.9205 17.4111 17.9167 17.3877V12.3542C17.9167 12.1435 17.8752 11.9349 17.7946 11.7403C17.7139 11.5457 17.5958 11.3688 17.4468 11.2198C17.2979 11.0709 17.121 10.9527 16.9264 10.8721C16.7318 10.7915 16.5232 10.75 16.3125 10.75H11.9375ZM17.0417 20.9583H11.2083V12.3542C11.2083 11.9517 11.535 11.625 11.9375 11.625H16.3125C16.715 11.625 17.0417 11.9517 17.0417 12.3542V20.9583Z" fill="white"/>
<defs>
<filter id="filter0_d_42_576" x="0.6" y="0.6" width="28.8" height="36.8" filterUnits="userSpaceOnUse" color-interpolation-filters="sRGB">
<feFlood flood-opacity="0" result="BackgroundImageFix"/>
<feColorMatrix in="SourceAlpha" type="matrix" values="0 0 0 0 0 0 0 0 0 0 0 0 0 0 0 0 0 0 127 0" result="hardAlpha"/>
<feOffset/>
<feGaussianBlur stdDeviation="2.2"/>
<feComposite in2="hardAlpha" operator="out"/>
<feColorMatrix type="matrix" values="0 0 0 0 0.203438 0 0 0 0 0.314198 0 0 0 0 0.361667 0 0 0 0.36 0"/>
<feBlend mode="normal" in2="BackgroundImageFix" result="effect1_dropShadow_42_576"/>
<feBlend mode="normal" in="SourceGraphic" in2="effect1_dropShadow_42_576" result="shape"/>
</filter>
</defs>
</svg>
