<svg width="28" height="28" viewBox="0 0 28 28" fill="none" xmlns="http://www.w3.org/2000/svg">
<path d="M18.478 25.3299L18.4775 25.3305C17.9711 26.0304 17.3013 26.6019 16.5235 26.9969C15.7457 27.3919 14.8827 27.5988 14.0065 27.6C13.1302 27.6012 12.2666 27.3967 11.4877 27.0038C10.7088 26.6109 10.0374 26.0413 9.52892 25.3428L9.52886 25.3428C6.10529 20.6424 4.93589 14.0963 4.55873 11.387C4.558 11.364 4.55549 11.3411 4.5512 11.3183C4.46563 10.8636 4.41509 10.4032 4.4 9.94108V9.76871C4.41701 7.31835 5.40458 4.96944 7.15555 3.22041C8.90706 1.47085 11.2847 0.459326 13.7847 0.402527C16.2846 0.345729 18.7075 1.2482 20.5396 2.91654C22.3689 4.58225 23.4655 6.88029 23.6 9.32382V11.3657C23.3123 13.5055 22.6159 16.1934 21.696 18.7542C20.771 21.3293 19.6317 23.7428 18.478 25.3299Z" fill="#F59842" stroke="#FF8514" stroke-width="0.8"/>
<path fill-rule="evenodd" clip-rule="evenodd" d="M19.7038 8.07596L14.19 5L8.31635 7.99354C8.12154 8.09282 8 8.28567 8 8.49549V8.81177C8 9.12645 8.26886 9.38155 8.60051 9.38155H19.3995C19.7311 9.38155 20 9.12645 20 8.81177V8.56714C20 8.36518 19.8873 8.17832 19.7038 8.07596ZM17.0144 8.06667H11.0233L14.1427 6.49349L17.0144 8.06667Z" fill="white"/>
<path d="M10.8821 10.179H9.49626V14.669H10.8821V10.179Z" fill="white"/>
<path d="M14.6928 10.179H13.307V14.669H14.6928V10.179Z" fill="white"/>
<path d="M18.5037 10.179H17.1179V14.669H18.5037V10.179Z" fill="white"/>
<path d="M19.3995 15.6851H8.60051C8.26886 15.6851 8 15.9402 8 16.2549V16.4302C8 16.7449 8.26886 17 8.60051 17H19.3995C19.7311 17 20 16.7449 20 16.4302V16.2549C20 15.9402 19.7311 15.6851 19.3995 15.6851Z" fill="white"/>
</svg>
