<svg width="28" height="28" viewBox="0 0 28 28" fill="none" xmlns="http://www.w3.org/2000/svg">
<path d="M18.478 25.3299L18.4775 25.3305C17.9711 26.0304 17.3013 26.6019 16.5235 26.9969C15.7457 27.3919 14.8827 27.5988 14.0065 27.6C13.1302 27.6012 12.2666 27.3967 11.4877 27.0038C10.7088 26.6109 10.0374 26.0413 9.52892 25.3428L9.52886 25.3428C6.10529 20.6424 4.93589 14.0963 4.55873 11.387C4.558 11.364 4.55549 11.3411 4.5512 11.3183C4.46563 10.8636 4.41509 10.4032 4.4 9.94108V9.76871C4.41701 7.31835 5.40458 4.96944 7.15555 3.22041C8.90706 1.47085 11.2847 0.459326 13.7847 0.402527C16.2846 0.345729 18.7075 1.2482 20.5396 2.91654C22.3689 4.58225 23.4655 6.88029 23.6 9.32382V11.3657C23.3123 13.5055 22.6159 16.1934 21.696 18.7542C20.771 21.3293 19.6317 23.7428 18.478 25.3299Z" fill="#F59842" stroke="#FF8514" stroke-width="0.8"/>
<path fill-rule="evenodd" clip-rule="evenodd" d="M11.8055 13.4754C12.3875 14.0484 13.1769 14.3704 14 14.3704C14.8231 14.3704 15.6125 14.0484 16.1945 13.4754C16.7765 12.9024 17.1034 12.1252 17.1034 11.3148C17.1034 10.5044 16.7765 9.72724 16.1945 9.15421C15.6125 8.58118 14.8231 8.25926 14 8.25926C13.1769 8.25926 12.3875 8.58118 11.8055 9.15421C11.2235 9.72724 10.8966 10.5044 10.8966 11.3148C10.8966 12.1252 11.2235 12.9024 11.8055 13.4754ZM15.3167 12.6112C14.9675 12.955 14.4939 13.1481 14 13.1481C13.5061 13.1481 13.0325 12.955 12.6833 12.6112C12.3341 12.2674 12.1379 11.801 12.1379 11.3148C12.1379 10.8286 12.3341 10.3623 12.6833 10.0185C13.0325 9.67464 13.5061 9.48148 14 9.48148C14.4939 9.48148 14.9675 9.67464 15.3167 10.0185C15.6659 10.3623 15.8621 10.8286 15.8621 11.3148C15.8621 11.801 15.6659 12.2674 15.3167 12.6112Z" fill="white"/>
<path fill-rule="evenodd" clip-rule="evenodd" d="M17.4405 6.62963L16.897 5.56222C16.811 5.39327 16.6789 5.25117 16.5156 5.15189C16.3523 5.0526 16.1641 5.00001 15.9721 5H12.0286C11.8365 5.0001 11.6483 5.05284 11.4849 5.15232C11.3216 5.2518 11.1896 5.39408 11.1038 5.56324L10.5618 6.62963H8.62069C8.45607 6.62963 8.2982 6.69401 8.1818 6.80862C8.06539 6.92323 8 7.07866 8 7.24074V15.3889C8 15.551 8.06539 15.7064 8.1818 15.821C8.2982 15.9356 8.45607 16 8.62069 16H19.3793C19.5439 16 19.7018 15.9356 19.8182 15.821C19.9346 15.7064 20 15.551 20 15.3889V7.24074C20 7.07866 19.9346 6.92323 19.8182 6.80862C19.7018 6.69401 19.5439 6.62963 19.3793 6.62963H17.4405ZM16.0517 6.62963H11.9497L12.1566 6.22222H15.8444L16.0517 6.62963ZM18.7586 7.85185V14.7778H9.24138V7.85185H18.7586Z" fill="white"/>
</svg>
