<svg width="30" height="38" viewBox="0 0 30 38" fill="none" xmlns="http://www.w3.org/2000/svg">
<g filter="url(#filter0_d_73_274)">
<path d="M19.8016 30.5651C22.1731 27.3027 24.4196 20.75 25 16.3923V14.3129C24.8624 11.7594 23.7177 9.35893 21.8089 7.62078C19.9001 5.88264 17.3773 4.94352 14.7756 5.00263C12.1738 5.06174 9.69787 6.11443 7.87286 7.93741C6.04786 9.76039 5.01738 12.2102 5 14.7673V14.9475C5.01549 15.4324 5.06834 15.9153 5.1581 16.3923C5.15924 16.3982 5.15924 16.4043 5.1581 16.4102C5.53123 19.1048 6.70514 25.7724 10.2055 30.5783C10.7517 31.3285 11.4724 31.9397 12.3076 32.361C13.1427 32.7822 14.0682 33.0013 15.007 33C15.9458 32.9987 16.8707 32.7771 17.7046 32.3535C18.5386 31.93 19.2576 31.3168 19.8016 30.5651Z" fill="#476BC6"/>
<path d="M19.478 30.3299L19.4775 30.3305C18.9711 31.0304 18.3013 31.6019 17.5235 31.9969C16.7457 32.3919 15.8827 32.5988 15.0065 32.6C14.1302 32.6012 13.2666 32.3967 12.4877 32.0038C11.7088 31.6109 11.0374 31.0413 10.5289 30.3428L10.5289 30.3428C7.10529 25.6424 5.93589 19.0963 5.55873 16.387C5.558 16.364 5.55549 16.3411 5.5512 16.3183C5.46563 15.8636 5.41509 15.4032 5.4 14.9411V14.7687C5.41701 12.3184 6.40458 9.96944 8.15555 8.22041C9.90706 6.47085 12.2847 5.45933 14.7847 5.40253C17.2846 5.34573 19.7075 6.2482 21.5396 7.91654C23.3689 9.58225 24.4655 11.8803 24.6 14.3238V16.3657C24.3123 18.5055 23.6159 21.1934 22.696 23.7542C21.771 26.3293 20.6317 28.7428 19.478 30.3299Z" stroke="#2B4EA6" stroke-width="0.8"/>
</g>
<path d="M19.8125 13.8125H20.6875V15.5625H19.8125V13.8125ZM9.3125 13.8125H10.1875V15.5625H9.3125V13.8125ZM16.75 17.75H17.625V18.625H16.75V17.75ZM12.375 17.75H13.25V18.625H12.375V17.75Z" fill="white"/>
<path d="M17.1875 10.75H12.8125C12.2326 10.7507 11.6766 10.9814 11.2665 11.3915C10.8564 11.8016 10.6257 12.3576 10.625 12.9375V19.0625C10.6252 19.2945 10.7175 19.5169 10.8815 19.681C11.0456 19.845 11.268 19.9373 11.5 19.9375V21.25H12.375V19.9375H17.625V21.25H18.5V19.9375C18.732 19.9372 18.9543 19.8449 19.1183 19.6808C19.2824 19.5168 19.3747 19.2945 19.375 19.0625V12.9375C19.3743 12.3576 19.1436 11.8016 18.7335 11.3915C18.3234 10.9814 17.7674 10.7507 17.1875 10.75ZM18.5 13.375V16H11.5V13.375H18.5ZM12.8125 11.625H17.1875C17.4581 11.6258 17.7217 11.7103 17.9423 11.867C18.1629 12.0237 18.3296 12.2448 18.4195 12.5H11.5805C11.6704 12.2448 11.8371 12.0237 12.0577 11.867C12.2783 11.7103 12.5419 11.6258 12.8125 11.625ZM11.5 19.0625V16.875H18.5004L18.5009 19.0625H11.5Z" fill="white"/>
<defs>
<filter id="filter0_d_73_274" x="0.6" y="0.6" width="28.8" height="36.8" filterUnits="userSpaceOnUse" color-interpolation-filters="sRGB">
<feFlood flood-opacity="0" result="BackgroundImageFix"/>
<feColorMatrix in="SourceAlpha" type="matrix" values="0 0 0 0 0 0 0 0 0 0 0 0 0 0 0 0 0 0 127 0" result="hardAlpha"/>
<feOffset/>
<feGaussianBlur stdDeviation="2.2"/>
<feComposite in2="hardAlpha" operator="out"/>
<feColorMatrix type="matrix" values="0 0 0 0 0.203438 0 0 0 0 0.314198 0 0 0 0 0.361667 0 0 0 0.36 0"/>
<feBlend mode="normal" in2="BackgroundImageFix" result="effect1_dropShadow_73_274"/>
<feBlend mode="normal" in="SourceGraphic" in2="effect1_dropShadow_73_274" result="shape"/>
</filter>
</defs>
</svg>
