<svg width="28" height="28" viewBox="0 0 28 28" fill="none" xmlns="http://www.w3.org/2000/svg">
<path d="M18.478 25.3299L18.4775 25.3305C17.9711 26.0304 17.3013 26.6019 16.5235 26.9969C15.7457 27.3919 14.8827 27.5988 14.0065 27.6C13.1302 27.6012 12.2666 27.3967 11.4877 27.0038C10.7088 26.6109 10.0374 26.0413 9.52892 25.3428L9.52886 25.3428C6.10529 20.6424 4.93589 14.0963 4.55873 11.387C4.558 11.364 4.55549 11.3411 4.5512 11.3183C4.46563 10.8636 4.41509 10.4032 4.4 9.94108V9.76871C4.41701 7.31835 5.40458 4.96944 7.15555 3.22041C8.90706 1.47085 11.2847 0.459326 13.7847 0.402527C16.2846 0.345729 18.7075 1.2482 20.5396 2.91654C22.3689 4.58225 23.4655 6.88029 23.6 9.32382V11.3657C23.3123 13.5055 22.6159 16.1934 21.696 18.7542C20.771 21.3293 19.6317 23.7428 18.478 25.3299Z" fill="#7FB685" stroke="#539F5C" stroke-width="0.8"/>
<path d="M17.4247 5.3615C16.5871 4.87995 15.5928 4.74953 14.6593 4.99874C13.7257 5.24795 12.9287 5.85653 12.4425 6.6915L12.3095 6.92163C12.2806 6.97142 12.2619 7.02642 12.2543 7.08347C12.2467 7.14052 12.2505 7.19851 12.2654 7.2541C12.2802 7.3097 12.3059 7.36182 12.341 7.40747C12.376 7.45311 12.4198 7.4914 12.4696 7.52013L14.7866 8.85188L13.3612 11.343C12.0925 11.5084 11.0162 12.3318 10.3337 13.4378C10.6588 13.3652 10.9992 13.4184 11.2866 13.5865C11.9227 12.7343 12.8441 12.1883 13.832 12.1883C14.8199 12.1883 15.7412 12.7343 16.3765 13.5874C16.6639 13.4182 17.005 13.365 17.3302 13.4386C16.6591 12.3493 15.6065 11.5355 14.364 11.3518L15.5444 9.28675L18.0294 10.7148C18.1296 10.7723 18.2485 10.7878 18.3601 10.758C18.4718 10.7282 18.5671 10.6554 18.6252 10.5555L18.7591 10.3245C18.9988 9.91132 19.1543 9.45483 19.2169 8.9813C19.2795 8.50777 19.2478 8.02654 19.1237 7.5653C18.9996 7.10405 18.7855 6.67189 18.4938 6.29368C18.2021 5.91547 17.8394 5.59867 17.4247 5.3615ZM13.2912 6.98375C13.6107 6.50705 14.0697 6.14078 14.6054 5.93511C15.1412 5.72944 15.7274 5.69443 16.2837 5.83488C15.981 5.98809 15.6918 6.16665 15.4192 6.36863C14.9791 6.70113 14.6387 7.07738 14.2861 7.556L13.2912 6.98288V6.98375ZM15.946 7.06688C16.1892 6.88313 16.4736 6.71338 16.8402 6.53488C16.8875 6.88488 16.898 7.185 16.8612 7.47813C16.8122 7.86313 16.6792 8.26475 16.3992 8.76963L15.05 7.9935C15.3475 7.59975 15.6161 7.31538 15.946 7.066V7.06688ZM18.0836 9.73738L17.1579 9.20538C17.4816 8.62525 17.6627 8.11425 17.7292 7.5875C17.7642 7.311 17.7651 7.03713 17.7441 6.75625C18.0836 7.16676 18.2965 7.6671 18.3567 8.19638C18.417 8.72566 18.3221 9.26105 18.0836 9.73738ZM11.0381 14.5823C11.0082 14.4922 10.9499 14.4144 10.8719 14.3604C10.7939 14.3064 10.7004 14.2792 10.6056 14.283C10.5108 14.2867 10.4198 14.3212 10.3463 14.3812C10.2728 14.4412 10.2208 14.5234 10.1981 14.6155C10.0879 15.0635 9.884 15.298 9.66087 15.4336C9.422 15.578 9.11137 15.6375 8.75 15.6375C8.63397 15.6375 8.52269 15.6836 8.44064 15.7656C8.35859 15.8477 8.3125 15.959 8.3125 16.075C8.3125 16.191 8.35859 16.3023 8.44064 16.3844C8.52269 16.4664 8.63397 16.5125 8.75 16.5125C9.191 16.5125 9.68275 16.4425 10.1132 16.1826C10.3267 16.0531 10.5149 15.8843 10.6697 15.6708C11.5106 16.6158 13.0147 16.6105 13.8329 15.6541C14.665 16.628 16.2094 16.6166 17.0406 15.6191C17.2684 15.8964 17.5544 16.1201 17.8783 16.2745C18.2022 16.4289 18.5561 16.5101 18.9149 16.5125C19.0309 16.5125 19.1422 16.4664 19.2242 16.3844C19.3063 16.3023 19.3524 16.191 19.3524 16.075C19.3524 15.959 19.3063 15.8477 19.2242 15.7656C19.1422 15.6836 19.0309 15.6375 18.9149 15.6375C18.2884 15.6375 17.6645 15.228 17.4589 14.5866C17.4306 14.4989 17.3753 14.4224 17.301 14.368C17.2266 14.3136 17.137 14.284 17.0448 14.2835C16.9527 14.2831 16.8628 14.3117 16.7878 14.3653C16.7129 14.4189 16.6569 14.4949 16.6276 14.5823C16.2207 15.8081 14.6414 15.7871 14.2459 14.6348C14.2161 14.5488 14.1603 14.4742 14.0862 14.4215C14.0121 14.3687 13.9234 14.3403 13.8324 14.3403C13.7415 14.3403 13.6528 14.3687 13.5787 14.4215C13.5046 14.4742 13.4488 14.5488 13.419 14.6348C13.0226 15.7871 11.4441 15.8081 11.0381 14.5823Z" fill="#F5F5F5"/>
</svg>
