<svg width="28" height="28" viewBox="0 0 28 28" fill="none" xmlns="http://www.w3.org/2000/svg">
<path d="M18.478 25.3299L18.4775 25.3305C17.9711 26.0304 17.3013 26.6019 16.5235 26.9969C15.7457 27.3919 14.8827 27.5988 14.0065 27.6C13.1302 27.6012 12.2666 27.3967 11.4877 27.0038C10.7088 26.6109 10.0374 26.0413 9.52892 25.3428L9.52886 25.3428C6.10529 20.6424 4.93589 14.0963 4.55873 11.387C4.558 11.364 4.55549 11.3411 4.5512 11.3183C4.46563 10.8636 4.41509 10.4032 4.4 9.94108V9.76871C4.41701 7.31835 5.40458 4.96944 7.15555 3.22041C8.90706 1.47085 11.2847 0.459326 13.7847 0.402527C16.2846 0.345729 18.7075 1.2482 20.5396 2.91654C22.3689 4.58225 23.4655 6.88029 23.6 9.32382V11.3657C23.3123 13.5055 22.6159 16.1934 21.696 18.7542C20.771 21.3293 19.6317 23.7428 18.478 25.3299Z" fill="#7FB685" stroke="#539F5C" stroke-width="0.8"/>
<path d="M14.364 4.19512C14.324 4.1352 14.2699 4.08607 14.2064 4.05209C14.1429 4.01811 14.072 4.00034 14 4.00034C13.928 4.00034 13.8571 4.01811 13.7936 4.05209C13.7301 4.08607 13.6759 4.1352 13.636 4.19512L11.011 8.13262C10.9671 8.1985 10.942 8.27504 10.9382 8.35409C10.9344 8.43314 10.9522 8.51173 10.9895 8.5815C11.0269 8.65126 11.0824 8.70959 11.1503 8.75027C11.2182 8.79095 11.2958 8.81246 11.375 8.8125H11.4607L9.69149 11.6431C9.65009 11.7093 9.62719 11.7854 9.62514 11.8635C9.62309 11.9416 9.64197 12.0188 9.67983 12.0871C9.71769 12.1554 9.77314 12.2123 9.84043 12.252C9.90772 12.2916 9.98439 12.3125 10.0625 12.3125H10.2296L8.79636 15.179C8.76294 15.2457 8.74713 15.3198 8.75043 15.3944C8.75373 15.4689 8.77604 15.5414 8.81524 15.6048C8.85443 15.6683 8.90921 15.7207 8.97436 15.7571C9.03951 15.7934 9.11288 15.8125 9.18749 15.8125H13.125V18H14.875V15.8125H18.8125C18.8871 15.8125 18.9605 15.7934 19.0256 15.7571C19.0908 15.7207 19.1455 15.6683 19.1847 15.6048C19.2239 15.5414 19.2462 15.4689 19.2495 15.3944C19.2528 15.3198 19.237 15.2457 19.2036 15.179L17.7712 12.3125H17.9384C18.0165 12.3125 18.0931 12.2916 18.1604 12.252C18.2277 12.2123 18.2832 12.1554 18.321 12.0871C18.3589 12.0188 18.3778 11.9416 18.3757 11.8635C18.3737 11.7854 18.3508 11.7093 18.3094 11.6431L16.5392 8.8125H16.625C16.7041 8.81246 16.7818 8.79095 16.8496 8.75027C16.9175 8.70959 16.9731 8.65126 17.0105 8.5815C17.0478 8.51173 17.0655 8.43314 17.0618 8.35409C17.058 8.27504 17.0328 8.1985 16.989 8.13262L14.364 4.19512ZM12.6324 8.16325C12.5946 8.09492 12.5392 8.03795 12.4719 7.99826C12.4047 7.95856 12.3281 7.93758 12.25 7.9375H12.1922L14 5.22587L15.8077 7.9375H15.75C15.6719 7.9375 15.5952 7.9584 15.5279 7.99804C15.4606 8.03768 15.4052 8.0946 15.3673 8.16291C15.3295 8.23122 15.3106 8.30841 15.3126 8.38648C15.3147 8.46455 15.3376 8.54065 15.379 8.60687L17.1482 11.4375H17.0625C16.9879 11.4375 16.9145 11.4566 16.8494 11.4929C16.7842 11.5293 16.7294 11.5817 16.6902 11.6452C16.651 11.7086 16.6287 11.7811 16.6254 11.8556C16.6221 11.9302 16.6379 12.0043 16.6714 12.071L18.1037 14.9375H9.89536L11.3286 12.071C11.362 12.0043 11.3778 11.9302 11.3745 11.8556C11.3712 11.7811 11.3489 11.7086 11.3097 11.6452C11.2705 11.5817 11.2158 11.5293 11.1506 11.4929C11.0855 11.4566 11.0121 11.4375 10.9375 11.4375H10.8517L12.621 8.60687C12.6623 8.54066 12.6851 8.46461 12.6871 8.38661C12.6891 8.30861 12.6702 8.23149 12.6324 8.16325Z" fill="#F5F5F5"/>
</svg>
