<svg width="28" height="28" viewBox="0 0 28 28" fill="none" xmlns="http://www.w3.org/2000/svg">
<path d="M18.478 25.3299L18.4775 25.3305C17.9711 26.0304 17.3013 26.6019 16.5235 26.9969C15.7457 27.3919 14.8827 27.5988 14.0065 27.6C13.1302 27.6012 12.2666 27.3967 11.4877 27.0038C10.7088 26.6109 10.0374 26.0413 9.52892 25.3428L9.52886 25.3428C6.10529 20.6424 4.93589 14.0963 4.55873 11.387C4.558 11.364 4.55549 11.3411 4.5512 11.3183C4.46563 10.8636 4.41509 10.4032 4.4 9.94108V9.76871C4.41701 7.31835 5.40458 4.96944 7.15555 3.22041C8.90706 1.47085 11.2847 0.459326 13.7847 0.402527C16.2846 0.345729 18.7075 1.2482 20.5396 2.91654C22.3689 4.58225 23.4655 6.88029 23.6 9.32382V11.3657C23.3123 13.5055 22.6159 16.1934 21.696 18.7542C20.771 21.3293 19.6317 23.7428 18.478 25.3299Z" fill="#7FB685" stroke="#539F5C" stroke-width="0.8"/>
<path d="M11.0833 17.4167L12.8771 8.34583C12.9354 8.06389 13.0667 7.85233 13.2708 7.71117C13.475 7.57 13.6889 7.49961 13.9125 7.5C14.1361 7.5 14.3428 7.54861 14.5326 7.64583C14.7224 7.74306 14.8754 7.88889 14.9917 8.08333L15.575 9.01667C15.75 9.29861 15.9762 9.55392 16.2534 9.78258C16.5307 10.0113 16.849 10.1789 17.2083 10.2854V9.25H18.0833V17.4167H17.2083V11.4958C16.7417 11.3889 16.309 11.2188 15.9104 10.9854C15.5118 10.7521 15.1667 10.4653 14.875 10.125L14.525 11.875L15.75 13.0417V17.4167H14.5833V13.9167L13.3583 12.75L12.3083 17.4167H11.0833ZM11.3313 11.6563L10.0917 11.4229C9.93613 11.3938 9.8146 11.3134 9.7271 11.182C9.6396 11.0506 9.61043 10.9024 9.6396 10.7375L10.0771 8.44792C10.1354 8.13681 10.3007 7.89122 10.5729 7.71117C10.8452 7.53111 11.1368 7.47045 11.4479 7.52917L12.1188 7.66042L11.3313 11.6563ZM14.875 7.20833C14.5542 7.20833 14.2794 7.094 14.0508 6.86533C13.8221 6.63667 13.708 6.36211 13.7083 6.04167C13.7083 5.72083 13.8227 5.44608 14.0513 5.21742C14.28 4.98875 14.5546 4.87461 14.875 4.875C15.1958 4.875 15.4706 4.98933 15.6993 5.218C15.9279 5.44667 16.0421 5.72122 16.0417 6.04167C16.0417 6.3625 15.9273 6.63725 15.6987 6.86592C15.47 7.09458 15.1955 7.20872 14.875 7.20833Z" fill="#F5F5F5"/>
</svg>
