<svg width="28" height="28" viewBox="0 0 28 28" fill="none" xmlns="http://www.w3.org/2000/svg">
<path d="M18.478 25.3299L18.4775 25.3305C17.9711 26.0304 17.3013 26.6019 16.5235 26.9969C15.7457 27.3919 14.8827 27.5988 14.0065 27.6C13.1302 27.6012 12.2666 27.3967 11.4877 27.0038C10.7088 26.6109 10.0374 26.0413 9.52892 25.3428L9.52886 25.3428C6.10529 20.6424 4.93589 14.0963 4.55873 11.387C4.558 11.364 4.55549 11.3411 4.5512 11.3183C4.46563 10.8636 4.41509 10.4032 4.4 9.94108V9.76871C4.41701 7.31835 5.40458 4.96944 7.15555 3.22041C8.90706 1.47085 11.2847 0.459326 13.7847 0.402527C16.2846 0.345729 18.7075 1.2482 20.5396 2.91654C22.3689 4.58225 23.4655 6.88029 23.6 9.32382V11.3657C23.3123 13.5055 22.6159 16.1934 21.696 18.7542C20.771 21.3293 19.6317 23.7428 18.478 25.3299Z" fill="#1CBDE7" stroke="#2FAECF" stroke-width="0.8"/>
<path d="M15.7863 13.5856V13.5064L15.7083 13.4932C15.119 13.3932 14.5841 13.0881 14.1981 12.6318C13.8121 12.1755 13.5998 11.5975 13.5988 10.9998V9.25C13.5988 9.15883 13.635 9.0714 13.6995 9.00693C13.764 8.94247 13.8514 8.90625 13.9426 8.90625H18.3176C18.4087 8.90625 18.4962 8.94247 18.5606 9.00693C18.6251 9.0714 18.6613 9.15883 18.6613 9.25V10.9998C18.6603 11.5975 18.448 12.1755 18.062 12.6318C17.676 13.0881 17.1411 13.3932 16.5519 13.4932L16.4738 13.5064V13.5856V16.25V16.3438H16.5676H17.7863V17.0312H14.4738V16.3438H15.6926H15.7863V16.25V13.5856ZM14.3801 9.59375H14.2863V9.6875V11C14.2863 11.489 14.4806 11.958 14.8263 12.3037C15.1721 12.6495 15.6411 12.8438 16.1301 12.8438C16.6191 12.8438 17.088 12.6495 17.4338 12.3037C17.7796 11.958 17.9738 11.489 17.9738 11V9.6875V9.59375H17.8801H14.3801ZM11.365 8.18027L11.4113 8.15311V8.09938V4.875C11.4113 4.78383 11.4475 4.6964 11.512 4.63193C11.5765 4.56747 11.6639 4.53125 11.7551 4.53125H13.9426C14.0337 4.53125 14.1212 4.56747 14.1856 4.63193C14.2501 4.6964 14.2863 4.78383 14.2863 4.875V7.40625H13.5988V5.3125V5.21875H13.5051H12.1926H12.0988V5.3125V8.62252L11.8636 8.70129L11.8635 8.70126L11.8612 8.70211C11.8349 8.71171 11.5666 8.81269 11.3041 9.09451C11.0398 9.37838 10.7863 9.84072 10.7863 10.5625V16.25V16.3438H10.8801H12.5363V17.0312H10.4426C10.3514 17.0312 10.264 16.995 10.1995 16.9306C10.135 16.8661 10.0988 16.7787 10.0988 16.6875V10.5625H10.099L10.0986 10.5567C10.0693 10.0823 10.1722 9.60895 10.3957 9.18942C10.6193 8.76989 10.9548 8.42056 11.365 8.18027Z" fill="white" stroke="white" stroke-width="0.1875"/>
</svg>
