<svg width="28" height="28" viewBox="0 0 28 28" fill="none" xmlns="http://www.w3.org/2000/svg">
<path d="M18.478 25.3299L18.4775 25.3305C17.9711 26.0304 17.3013 26.6019 16.5235 26.9969C15.7457 27.3919 14.8827 27.5988 14.0065 27.6C13.1302 27.6012 12.2666 27.3967 11.4877 27.0038C10.7088 26.6109 10.0374 26.0413 9.52892 25.3428L9.52886 25.3428C6.10529 20.6424 4.93589 14.0963 4.55873 11.387C4.558 11.364 4.55549 11.3411 4.5512 11.3183C4.46563 10.8636 4.41509 10.4032 4.4 9.94108V9.76871C4.41701 7.31835 5.40458 4.96944 7.15555 3.22041C8.90706 1.47085 11.2847 0.459326 13.7847 0.402527C16.2846 0.345729 18.7075 1.2482 20.5396 2.91654C22.3689 4.58225 23.4655 6.88029 23.6 9.32382V11.3657C23.3123 13.5055 22.6159 16.1934 21.696 18.7542C20.771 21.3293 19.6317 23.7428 18.478 25.3299Z" fill="#1CBDE7" stroke="#2FAECF" stroke-width="0.8"/>
<path d="M18.5726 6.98079C18.2919 6.85634 17.9915 6.7895 17.6874 6.78373V6.41667C17.6874 6.29383 17.6415 6.17546 17.5588 6.08775C17.4761 5.99993 17.3632 5.95 17.2448 5.95H9.39261C9.27423 5.95 9.16135 5.99993 9.0786 6.08775C8.99595 6.17546 8.95 6.29383 8.95 6.41667V11C8.95 11.8964 9.2855 12.7566 9.88355 13.3913C10.4817 14.0261 11.2936 14.3833 12.1409 14.3833H14.4965C15.2052 14.3833 15.8935 14.1332 16.453 13.673C17.0022 13.2213 17.3968 12.5924 17.5779 11.8824C17.885 11.8913 18.191 11.8379 18.4792 11.7248C18.7803 11.6067 19.0559 11.426 19.2899 11.1935C19.5238 10.9609 19.7115 10.6812 19.8419 10.3709C19.9722 10.0606 20.0428 9.7259 20.0495 9.3864C20.0561 9.04691 19.9988 8.70937 19.8807 8.39361C19.7626 8.07784 19.5862 7.79014 19.3616 7.54748C19.137 7.30482 18.8688 7.11209 18.5726 6.98079ZM18.7115 10.4776C18.4379 10.7679 18.0716 10.9357 17.6874 10.9491V7.71754C18.0716 7.73097 18.4379 7.8988 18.7115 8.18911C18.997 8.4921 19.1578 8.90364 19.1578 9.33333C19.1578 9.76303 18.997 10.1746 18.7115 10.4776ZM17.2448 15.1167H9.39261C9.27423 15.1167 9.16135 15.1666 9.0786 15.2544C8.99595 15.3421 8.95 15.4605 8.95 15.5833C8.95 15.7062 8.99595 15.8245 9.0786 15.9123C9.16135 16.0001 9.27423 16.05 9.39261 16.05H17.2448C17.3632 16.05 17.4761 16.0001 17.5588 15.9123C17.6415 15.8245 17.6874 15.7062 17.6874 15.5833C17.6874 15.4605 17.6415 15.3421 17.5588 15.2544C17.4761 15.1666 17.3632 15.1167 17.2448 15.1167ZM9.83522 11V6.88333H16.8022V11C16.8022 11.6507 16.5586 12.2742 16.1258 12.7335C15.6932 13.1926 15.107 13.45 14.4965 13.45H12.1409C11.5304 13.45 10.9442 13.1926 10.5116 12.7335C10.0788 12.2742 9.83522 11.6507 9.83522 11Z" fill="white" stroke="white" stroke-width="0.1"/>
</svg>
