<svg width="28" height="28" viewBox="0 0 28 28" fill="none" xmlns="http://www.w3.org/2000/svg">
<path d="M18.478 25.3299L18.4775 25.3305C17.9711 26.0304 17.3013 26.6019 16.5235 26.9969C15.7457 27.3919 14.8827 27.5988 14.0065 27.6C13.1302 27.6012 12.2666 27.3967 11.4877 27.0038C10.7088 26.6109 10.0374 26.0413 9.52892 25.3428L9.52886 25.3428C6.10529 20.6424 4.93589 14.0963 4.55873 11.387C4.558 11.364 4.55549 11.3411 4.5512 11.3183C4.46563 10.8636 4.41509 10.4032 4.4 9.94108V9.76871C4.41701 7.31835 5.40458 4.96944 7.15555 3.22041C8.90706 1.47085 11.2847 0.459326 13.7847 0.402527C16.2846 0.345729 18.7075 1.2482 20.5396 2.91654C22.3689 4.58225 23.4655 6.88029 23.6 9.32382V11.3657C23.3123 13.5055 22.6159 16.1934 21.696 18.7542C20.771 21.3293 19.6317 23.7428 18.478 25.3299Z" fill="#1CBDE7" stroke="#2FAECF" stroke-width="0.8"/>
<path fill-rule="evenodd" clip-rule="evenodd" d="M19 5.59129L18.9947 5.51656L18.9941 5.51088C18.9739 5.36932 18.9012 5.23958 18.7894 5.14567C18.6776 5.05175 18.5344 5.00001 18.386 5C17.6649 5 16.9733 5.27599 16.4633 5.76725C15.9534 6.25851 15.6669 6.9248 15.6669 7.61954L15.6667 12.5212L15.6718 12.5959L15.6727 12.6016C15.6928 12.7431 15.7655 12.8729 15.8773 12.9668C15.9891 13.0607 16.1324 13.1124 16.2807 13.1124H17.7723V16.9999H18.9998L19 5.59129ZM18.732 5.20915C18.7439 5.21922 18.7554 5.22976 18.7663 5.24075ZM17.2019 6.74545C17.3521 6.5565 17.5483 6.40695 17.7723 6.30945V11.9299H16.8945V7.62101L16.8986 7.50799C16.9211 7.23093 17.0264 6.96607 17.2019 6.74545Z" fill="white"/>
<path fill-rule="evenodd" clip-rule="evenodd" d="M14.7893 5.59129L14.784 5.51656L14.7834 5.51088C14.7632 5.36932 14.6905 5.23958 14.5788 5.14567C14.467 5.05175 14.3237 5.00001 14.1754 5C14.0126 5 13.8565 5.0623 13.7414 5.17319C13.6263 5.28407 13.5616 5.43447 13.5616 5.59129V8.29404L13.5568 8.41595C13.5317 8.73593 13.4077 9.04136 13.2009 9.2929C13.0187 9.51437 12.7797 9.68513 12.5083 9.78882L12.5085 5.59129L12.5034 5.51655L12.5026 5.51085C12.4814 5.36244 12.4025 5.22731 12.2819 5.13276C12.1613 5.03822 12.0079 4.99132 11.8527 5.00153C11.6976 5.01174 11.5523 5.07831 11.4461 5.18777C11.3399 5.29724 11.2809 5.44148 11.2808 5.59129V9.78953C10.6639 9.5538 10.2276 8.97401 10.2276 8.29563L10.2278 5.59129L10.2226 5.51655L10.2218 5.51085C10.2006 5.36244 10.1217 5.22731 10.0011 5.13276C9.88048 5.03822 9.7271 4.99132 9.57195 5.00153C9.41681 5.01174 9.27147 5.07831 9.16531 5.18777C9.05915 5.29724 9.00007 5.44148 9.00002 5.59129L9 8.29563L9.00352 8.43828L9.00365 8.44065C9.03745 9.06384 9.28714 9.65812 9.71282 10.1285C10.1226 10.5813 10.6727 10.8941 11.2808 11.0214C11.2811 11.7755 11.2849 16.5346 11.292 16.9172L11.2935 17L12.5071 16.9985L12.5083 16.9156C12.512 16.6712 12.5096 13.0093 12.5087 11.54L12.5084 11.0215C13.8117 10.7496 14.7891 9.63306 14.7891 8.29563L14.7893 5.59129ZM13.2694 9.34521C13.0514 9.61035 12.7558 9.80642 12.4209 9.90809C12.4504 9.89915 12.4795 9.88947 12.5083 9.87908C12.8072 9.77138 13.0705 9.58703 13.2694 9.34521ZM11.3682 5.5913V9.90877C11.3323 9.89787 11.2968 9.88588 11.2619 9.87285C11.2682 9.8752 11.2745 9.87751 11.2808 9.87979C11.3096 9.89016 11.3388 9.89983 11.3682 9.90877V5.5913ZM12.4212 11.4369L12.4209 10.9678C12.4209 11.0336 12.421 11.1998 12.4212 11.4369ZM14.5213 5.20915C14.5333 5.21922 14.5447 5.22976 14.5556 5.24075Z" fill="white"/>
</svg>
