<svg width="28" height="28" viewBox="0 0 28 28" fill="none" xmlns="http://www.w3.org/2000/svg">
<path d="M18.478 25.3299L18.4775 25.3305C17.9711 26.0304 17.3013 26.6019 16.5235 26.9969C15.7457 27.3919 14.8827 27.5988 14.0065 27.6C13.1302 27.6012 12.2666 27.3967 11.4877 27.0038C10.7088 26.6109 10.0374 26.0413 9.52892 25.3428L9.52886 25.3428C6.10529 20.6424 4.93589 14.0963 4.55873 11.387C4.558 11.364 4.55549 11.3411 4.5512 11.3183C4.46563 10.8636 4.41509 10.4032 4.4 9.94108V9.76871C4.41701 7.31835 5.40458 4.96944 7.15555 3.22041C8.90706 1.47085 11.2847 0.459326 13.7847 0.402527C16.2846 0.345729 18.7075 1.2482 20.5396 2.91654C22.3689 4.58225 23.4655 6.88029 23.6 9.32382V11.3657C23.3123 13.5055 22.6159 16.1934 21.696 18.7542C20.771 21.3293 19.6317 23.7428 18.478 25.3299Z" fill="#1CBDE7" stroke="#2FAECF" stroke-width="0.8"/>
<path fill-rule="evenodd" clip-rule="evenodd" d="M8.94445 7.24605V12.5441L13.368 12.5441V8.70437C13.368 8.40947 13.5928 8.16908 13.8727 8.16908H18.0942C18.6684 8.16908 19.1131 8.16908 19.4501 8.20184C19.7851 8.23442 20.0551 8.30193 20.2489 8.47147C20.4505 8.64789 20.5339 8.90184 20.5729 9.20886C20.6111 9.50969 20.6111 9.90377 20.6111 10.4005V15.8725H19.493V13.9544C19.493 13.8861 19.4408 13.8308 19.3764 13.8308H9.06112C8.99668 13.8308 8.94445 13.8861 8.94445 13.9544V15.8725H7.68054V7.24605C7.68054 6.95041 7.90689 6.71075 8.1861 6.71075H8.43889C8.7181 6.71075 8.94445 6.95041 8.94445 7.24605ZM19.3764 12.5441L14.7486 12.5441C14.6842 12.5441 14.6319 12.4888 14.6319 12.4205V9.57937C14.6319 9.51115 14.6842 9.45584 14.7486 9.45584H18.0833C18.4877 9.45584 18.7795 9.45599 18.9959 9.47348C19.2178 9.49141 19.3224 9.52586 19.3769 9.5655C19.4161 9.59406 19.4499 9.64008 19.4705 9.77503C19.4924 9.91881 19.493 10.1177 19.493 10.4166V12.4206C19.493 12.4888 19.4408 12.5441 19.3764 12.5441Z" fill="white"/>
<path fill-rule="evenodd" clip-rule="evenodd" d="M13.0277 10.125C13.0277 11.1068 12.2453 11.8235 11.3749 11.8235C10.5046 11.8235 9.72217 11.1068 9.72217 10.125C9.72217 9.14319 10.5046 8.42645 11.3749 8.42645C12.2453 8.42645 13.0277 9.14319 13.0277 10.125ZM11.3749 11C11.8582 11 12.2499 10.6082 12.2499 10.125C12.2499 9.64173 11.8582 9.24998 11.3749 9.24998C10.8917 9.24998 10.4999 9.64173 10.4999 10.125C10.4999 10.6082 10.8917 11 11.3749 11Z" fill="white"/>
</svg>
