<svg width="28" height="28" viewBox="0 0 28 28" fill="none" xmlns="http://www.w3.org/2000/svg">
<path d="M18.478 25.3299L18.4775 25.3305C17.9711 26.0304 17.3013 26.6019 16.5235 26.9969C15.7457 27.3919 14.8827 27.5988 14.0065 27.6C13.1302 27.6012 12.2666 27.3967 11.4877 27.0038C10.7088 26.6109 10.0374 26.0413 9.52892 25.3428L9.52886 25.3428C6.10529 20.6424 4.93589 14.0963 4.55873 11.387C4.558 11.364 4.55549 11.3411 4.5512 11.3183C4.46563 10.8636 4.41509 10.4032 4.4 9.94108V9.76871C4.41701 7.31835 5.40458 4.96944 7.15555 3.22041C8.90706 1.47085 11.2847 0.459326 13.7847 0.402527C16.2846 0.345729 18.7075 1.2482 20.5396 2.91654C22.3689 4.58225 23.4655 6.88029 23.6 9.32382V11.3657C23.3123 13.5055 22.6159 16.1934 21.696 18.7542C20.771 21.3293 19.6317 23.7428 18.478 25.3299Z" fill="#1CBDE7" stroke="#2FAECF" stroke-width="0.8"/>
<path d="M20.16 6.51999H15.96C15.96 6.51999 15.68 8.75999 16.24 11C16.4651 11.3752 17.0212 11.5773 17.64 11.6286V14.36H17.5468L16.52 15.2H19.6L18.5965 14.36H18.48V11.6081C19.0736 11.5311 19.6177 11.3242 19.88 11C20.44 9.03999 20.16 6.51999 20.16 6.51999ZM19.88 8.19999H16.24V6.79999H19.88V8.19999ZM13.02 14.36H11.48V11.98L14.56 7.35999H7.28003L10.36 11.98V14.36H8.82003C8.70864 14.36 8.60181 14.4042 8.52304 14.483C8.44428 14.5618 8.40003 14.6686 8.40003 14.78C8.40003 14.8914 8.44428 14.9982 8.52304 15.077C8.60181 15.1557 8.70864 15.2 8.82003 15.2H13.02C13.1314 15.2 13.2382 15.1557 13.317 15.077C13.3958 14.9982 13.44 14.8914 13.44 14.78C13.44 14.6686 13.3958 14.5618 13.317 14.483C13.2382 14.4042 13.1314 14.36 13.02 14.36Z" fill="white"/>
</svg>
