<svg width="36" height="36" viewBox="0 0 36 36" fill="none" xmlns="http://www.w3.org/2000/svg">
<path d="M23.8392 32.5732L23.8385 32.5741C23.1788 33.4758 22.3059 34.2126 21.2916 34.722C20.2773 35.2315 19.1516 35.4984 18.0084 35.5C16.8653 35.5015 15.7388 35.2376 14.723 34.7309C13.7073 34.2243 12.8323 33.4898 12.1699 32.5899L12.1698 32.5898C7.7169 26.5435 6.19659 18.1241 5.70637 14.6412C5.70545 14.6119 5.70223 14.5827 5.69672 14.5538C5.58538 13.9686 5.51963 13.3762 5.5 12.7815V12.5597C5.52212 9.40726 6.80674 6.3842 9.08612 4.13237C11.3664 1.87969 14.4628 0.576435 17.7195 0.503256C20.9762 0.430076 24.1316 1.59288 26.517 3.74112C28.8985 5.88588 30.3251 8.84372 30.5 11.9875V14.6136C30.1259 17.3656 29.2204 20.8225 28.0243 24.1157C26.8216 27.4269 25.3401 30.5312 23.8392 32.5732Z" fill="#1CBDE7" stroke="#2FAECF"/>
<path d="M18 18C20.2091 18 22 16.2091 22 14C22 11.7909 20.2091 10 18 10C15.7909 10 14 11.7909 14 14C14 16.2091 15.7909 18 18 18Z" fill="#8FE8FF"/>
</svg>
