<svg width="30" height="38" viewBox="0 0 30 38" fill="none" xmlns="http://www.w3.org/2000/svg">
<g filter="url(#filter0_d_42_217)">
<path d="M19.8016 30.5651C22.1731 27.3027 24.4196 20.75 25 16.3923V14.3129C24.8624 11.7594 23.7177 9.35893 21.8089 7.62078C19.9001 5.88264 17.3773 4.94352 14.7756 5.00263C12.1738 5.06174 9.69787 6.11443 7.87286 7.93741C6.04786 9.76039 5.01738 12.2102 5 14.7673V14.9475C5.01549 15.4324 5.06834 15.9153 5.1581 16.3923C5.15924 16.3982 5.15924 16.4043 5.1581 16.4102C5.53123 19.1048 6.70514 25.7724 10.2055 30.5783C10.7517 31.3285 11.4724 31.9397 12.3076 32.361C13.1427 32.7822 14.0682 33.0013 15.007 33C15.9458 32.9987 16.8707 32.7771 17.7046 32.3535C18.5386 31.93 19.2576 31.3168 19.8016 30.5651Z" fill="#F59842"/>
</g>
<path fill-rule="evenodd" clip-rule="evenodd" d="M20.7038 13.076L15.19 10L9.31635 12.9935C9.12154 13.0928 9 13.2857 9 13.4955V13.8118C9 14.1265 9.26886 14.3816 9.60051 14.3816H20.3995C20.7311 14.3816 21 14.1265 21 13.8118V13.5671C21 13.3652 20.8873 13.1783 20.7038 13.076ZM18.0144 13.0667H12.0233L15.1427 11.4935L18.0144 13.0667Z" fill="white"/>
<path d="M11.8821 15.179H10.4963V19.669H11.8821V15.179Z" fill="white"/>
<path d="M15.6928 15.179H14.307V19.669H15.6928V15.179Z" fill="white"/>
<path d="M19.5037 15.179H18.1179V19.669H19.5037V15.179Z" fill="white"/>
<path d="M20.3995 20.6851H9.60051C9.26886 20.6851 9 20.9402 9 21.2549V21.4302C9 21.7449 9.26886 22 9.60051 22H20.3995C20.7311 22 21 21.7449 21 21.4302V21.2549C21 20.9402 20.7311 20.6851 20.3995 20.6851Z" fill="white"/>
<defs>
<filter id="filter0_d_42_217" x="0.6" y="0.6" width="28.8" height="36.8" filterUnits="userSpaceOnUse" color-interpolation-filters="sRGB">
<feFlood flood-opacity="0" result="BackgroundImageFix"/>
<feColorMatrix in="SourceAlpha" type="matrix" values="0 0 0 0 0 0 0 0 0 0 0 0 0 0 0 0 0 0 127 0" result="hardAlpha"/>
<feOffset/>
<feGaussianBlur stdDeviation="2.2"/>
<feComposite in2="hardAlpha" operator="out"/>
<feColorMatrix type="matrix" values="0 0 0 0 0.203438 0 0 0 0 0.314198 0 0 0 0 0.361667 0 0 0 0.36 0"/>
<feBlend mode="normal" in2="BackgroundImageFix" result="effect1_dropShadow_42_217"/>
<feBlend mode="normal" in="SourceGraphic" in2="effect1_dropShadow_42_217" result="shape"/>
</filter>
</defs>
</svg>
