<svg width="30" height="38" viewBox="0 0 30 38" fill="none" xmlns="http://www.w3.org/2000/svg">
<g filter="url(#filter0_d_42_183)">
<path d="M19.8016 30.5651C22.1731 27.3027 24.4196 20.75 25 16.3923V14.3129C24.8624 11.7594 23.7177 9.35893 21.8089 7.62078C19.9001 5.88264 17.3773 4.94352 14.7756 5.00263C12.1738 5.06174 9.69787 6.11443 7.87286 7.93741C6.04786 9.76039 5.01738 12.2102 5 14.7673V14.9475C5.01549 15.4324 5.06834 15.9153 5.1581 16.3923C5.15924 16.3982 5.15924 16.4043 5.1581 16.4102C5.53123 19.1048 6.70514 25.7724 10.2055 30.5783C10.7517 31.3285 11.4724 31.9397 12.3076 32.361C13.1427 32.7822 14.0682 33.0013 15.007 33C15.9458 32.9987 16.8707 32.7771 17.7046 32.3535C18.5386 31.93 19.2576 31.3168 19.8016 30.5651Z" fill="#F59842"/>
</g>
<path fill-rule="evenodd" clip-rule="evenodd" d="M12.8055 18.4754C13.3875 19.0484 14.1769 19.3704 15 19.3704C15.8231 19.3704 16.6125 19.0484 17.1945 18.4754C17.7765 17.9024 18.1034 17.1252 18.1034 16.3148C18.1034 15.5044 17.7765 14.7272 17.1945 14.1542C16.6125 13.5812 15.8231 13.2593 15 13.2593C14.1769 13.2593 13.3875 13.5812 12.8055 14.1542C12.2235 14.7272 11.8966 15.5044 11.8966 16.3148C11.8966 17.1252 12.2235 17.9024 12.8055 18.4754ZM16.3167 17.6112C15.9675 17.955 15.4939 18.1481 15 18.1481C14.5061 18.1481 14.0325 17.955 13.6833 17.6112C13.3341 17.2674 13.1379 16.801 13.1379 16.3148C13.1379 15.8286 13.3341 15.3623 13.6833 15.0185C14.0325 14.6746 14.5061 14.4815 15 14.4815C15.4939 14.4815 15.9675 14.6746 16.3167 15.0185C16.6659 15.3623 16.8621 15.8286 16.8621 16.3148C16.8621 16.801 16.6659 17.2674 16.3167 17.6112Z" fill="white"/>
<path fill-rule="evenodd" clip-rule="evenodd" d="M18.4405 11.6296L17.897 10.5622C17.811 10.3933 17.6789 10.2512 17.5156 10.1519C17.3523 10.0526 17.1641 10 16.9721 10H13.0286C12.8365 10.0001 12.6483 10.0528 12.4849 10.1523C12.3216 10.2518 12.1896 10.3941 12.1038 10.5632L11.5618 11.6296H9.62069C9.45607 11.6296 9.2982 11.694 9.1818 11.8086C9.06539 11.9232 9 12.0787 9 12.2407V20.3889C9 20.551 9.06539 20.7064 9.1818 20.821C9.2982 20.9356 9.45607 21 9.62069 21H20.3793C20.5439 21 20.7018 20.9356 20.8182 20.821C20.9346 20.7064 21 20.551 21 20.3889V12.2407C21 12.0787 20.9346 11.9232 20.8182 11.8086C20.7018 11.694 20.5439 11.6296 20.3793 11.6296H18.4405ZM17.0517 11.6296H12.9497L13.1566 11.2222H16.8444L17.0517 11.6296ZM19.7586 12.8519V19.7778H10.2414V12.8519H19.7586Z" fill="white"/>
<defs>
<filter id="filter0_d_42_183" x="0.6" y="0.6" width="28.8" height="36.8" filterUnits="userSpaceOnUse" color-interpolation-filters="sRGB">
<feFlood flood-opacity="0" result="BackgroundImageFix"/>
<feColorMatrix in="SourceAlpha" type="matrix" values="0 0 0 0 0 0 0 0 0 0 0 0 0 0 0 0 0 0 127 0" result="hardAlpha"/>
<feOffset/>
<feGaussianBlur stdDeviation="2.2"/>
<feComposite in2="hardAlpha" operator="out"/>
<feColorMatrix type="matrix" values="0 0 0 0 0.203438 0 0 0 0 0.314198 0 0 0 0 0.361667 0 0 0 0.36 0"/>
<feBlend mode="normal" in2="BackgroundImageFix" result="effect1_dropShadow_42_183"/>
<feBlend mode="normal" in="SourceGraphic" in2="effect1_dropShadow_42_183" result="shape"/>
</filter>
</defs>
</svg>
