<svg width="28" height="28" viewBox="0 0 28 28" fill="none" xmlns="http://www.w3.org/2000/svg">
<path d="M18.478 25.3299L18.4775 25.3305C17.9711 26.0304 17.3013 26.6019 16.5235 26.9969C15.7457 27.3919 14.8827 27.5988 14.0065 27.6C13.1302 27.6012 12.2666 27.3967 11.4877 27.0038C10.7088 26.6109 10.0374 26.0413 9.52892 25.3428L9.52886 25.3428C6.5115 21.2001 4.40037 14.9176 4.4 9.7687C4.41701 7.31835 5.40458 4.96944 7.15555 3.22041C8.90706 1.47085 11.2847 0.459326 13.7847 0.402527C16.2846 0.345729 18.7075 1.2482 20.5396 2.91654C22.3689 4.58224 23.4655 6.88026 23.6 9.32377C23.5975 14.7602 21.6944 20.9054 18.478 25.3299Z" fill="#E36161" stroke="#E95353" stroke-width="0.8"/>
<path d="M14 14C15.6569 14 17 12.6569 17 11C17 9.34314 15.6569 8 14 8C12.3431 8 11 9.34314 11 11C11 12.6569 12.3431 14 14 14Z" fill="#FFC7C7"/>
</svg>
