<svg width="30" height="38" viewBox="0 0 30 38" fill="none" xmlns="http://www.w3.org/2000/svg">
<g filter="url(#filter0_d_42_125)">
<path d="M19.8016 30.5651C22.1731 27.3027 24.4196 20.75 25 16.3923V14.3129C24.8624 11.7594 23.7177 9.35893 21.8089 7.62078C19.9001 5.88264 17.3773 4.94352 14.7756 5.00263C12.1738 5.06174 9.69787 6.11443 7.87286 7.93741C6.04786 9.76039 5.01738 12.2102 5 14.7673V14.9475C5.01549 15.4324 5.06834 15.9153 5.1581 16.3923C5.15924 16.3982 5.15924 16.4043 5.1581 16.4102C5.53123 19.1048 6.70514 25.7724 10.2055 30.5783C10.7517 31.3285 11.4724 31.9397 12.3076 32.361C13.1427 32.7822 14.0682 33.0013 15.007 33C15.9458 32.9987 16.8707 32.7771 17.7046 32.3535C18.5386 31.93 19.2576 31.3168 19.8016 30.5651Z" fill="#1CBDE7"/>
</g>
<path d="M16.7863 18.5856V18.5064L16.7083 18.4932C16.119 18.3932 15.5841 18.0881 15.1981 17.6318C14.8121 17.1755 14.5998 16.5975 14.5988 15.9998V14.25C14.5988 14.1588 14.635 14.0714 14.6995 14.0069C14.764 13.9425 14.8514 13.9062 14.9426 13.9062H19.3176C19.4087 13.9062 19.4962 13.9425 19.5606 14.0069C19.6251 14.0714 19.6613 14.1588 19.6613 14.25V15.9998C19.6603 16.5975 19.448 17.1755 19.062 17.6318C18.676 18.0881 18.1411 18.3932 17.5519 18.4932L17.4738 18.5064V18.5856V21.25V21.3438H17.5676H18.7863V22.0312H15.4738V21.3438H16.6926H16.7863V21.25V18.5856ZM15.3801 14.5938H15.2863V14.6875V16C15.2863 16.489 15.4806 16.958 15.8263 17.3037C16.1721 17.6495 16.6411 17.8438 17.1301 17.8438C17.6191 17.8438 18.088 17.6495 18.4338 17.3037C18.7796 16.958 18.9738 16.489 18.9738 16V14.6875V14.5938H18.8801H15.3801ZM12.365 13.1803L12.4113 13.1531V13.0994V9.875C12.4113 9.78383 12.4475 9.6964 12.512 9.63193C12.5765 9.56747 12.6639 9.53125 12.7551 9.53125H14.9426C15.0337 9.53125 15.1212 9.56747 15.1856 9.63193C15.2501 9.6964 15.2863 9.78383 15.2863 9.875V12.4062H14.5988V10.3125V10.2188H14.5051H13.1926H13.0988V10.3125V13.6225L12.8636 13.7013L12.8635 13.7013L12.8612 13.7021C12.8349 13.7117 12.5666 13.8127 12.3041 14.0945C12.0398 14.3784 11.7863 14.8407 11.7863 15.5625V21.25V21.3438H11.8801H13.5363V22.0312H11.4426C11.3514 22.0312 11.264 21.995 11.1995 21.9306C11.135 21.8661 11.0988 21.7787 11.0988 21.6875V15.5625H11.099L11.0986 15.5567C11.0693 15.0823 11.1722 14.6089 11.3957 14.1894C11.6193 13.7699 11.9548 13.4206 12.365 13.1803Z" fill="white" stroke="white" stroke-width="0.1875"/>
<defs>
<filter id="filter0_d_42_125" x="0.6" y="0.6" width="28.8" height="36.8" filterUnits="userSpaceOnUse" color-interpolation-filters="sRGB">
<feFlood flood-opacity="0" result="BackgroundImageFix"/>
<feColorMatrix in="SourceAlpha" type="matrix" values="0 0 0 0 0 0 0 0 0 0 0 0 0 0 0 0 0 0 127 0" result="hardAlpha"/>
<feOffset/>
<feGaussianBlur stdDeviation="2.2"/>
<feComposite in2="hardAlpha" operator="out"/>
<feColorMatrix type="matrix" values="0 0 0 0 0.203438 0 0 0 0 0.314198 0 0 0 0 0.361667 0 0 0 0.36 0"/>
<feBlend mode="normal" in2="BackgroundImageFix" result="effect1_dropShadow_42_125"/>
<feBlend mode="normal" in="SourceGraphic" in2="effect1_dropShadow_42_125" result="shape"/>
</filter>
</defs>
</svg>
