<svg width="30" height="38" viewBox="0 0 30 38" fill="none" xmlns="http://www.w3.org/2000/svg">
<g filter="url(#filter0_d_42_167)">
<path d="M19.8016 30.5651C22.1731 27.3027 24.4196 20.75 25 16.3923V14.3129C24.8624 11.7594 23.7177 9.35893 21.8089 7.62078C19.9001 5.88264 17.3773 4.94352 14.7756 5.00263C12.1738 5.06174 9.69787 6.11443 7.87286 7.93741C6.04786 9.76039 5.01738 12.2102 5 14.7673V14.9475C5.01549 15.4324 5.06834 15.9153 5.1581 16.3923C5.15924 16.3982 5.15924 16.4043 5.1581 16.4102C5.53123 19.1048 6.70514 25.7724 10.2055 30.5783C10.7517 31.3285 11.4724 31.9397 12.3076 32.361C13.1427 32.7822 14.0682 33.0013 15.007 33C15.9458 32.9987 16.8707 32.7771 17.7046 32.3535C18.5386 31.93 19.2576 31.3168 19.8016 30.5651Z" fill="#1CBDE7"/>
</g>
<path d="M19.5726 11.9808C19.2919 11.8563 18.9915 11.7895 18.6874 11.7837V11.4167C18.6874 11.2938 18.6415 11.1755 18.5588 11.0877C18.4761 10.9999 18.3632 10.95 18.2448 10.95H10.3926C10.2742 10.95 10.1613 10.9999 10.0786 11.0877C9.99595 11.1755 9.95 11.2938 9.95 11.4167V16C9.95 16.8964 10.2855 17.7566 10.8836 18.3913C11.4817 19.0261 12.2936 19.3833 13.1409 19.3833H15.4965C16.2052 19.3833 16.8935 19.1332 17.453 18.673C18.0022 18.2213 18.3968 17.5924 18.5779 16.8824C18.885 16.8913 19.191 16.8379 19.4792 16.7248C19.7803 16.6067 20.0559 16.426 20.2899 16.1935C20.5238 15.9609 20.7115 15.6812 20.8419 15.3709C20.9722 15.0606 21.0428 14.7259 21.0495 14.3864C21.0561 14.0469 20.9988 13.7094 20.8807 13.3936C20.7626 13.0778 20.5862 12.7901 20.3616 12.5475C20.137 12.3048 19.8688 12.1121 19.5726 11.9808ZM19.7115 15.4776C19.4379 15.7679 19.0716 15.9357 18.6874 15.9491V12.7175C19.0716 12.731 19.4379 12.8988 19.7115 13.1891C19.997 13.4921 20.1578 13.9036 20.1578 14.3333C20.1578 14.763 19.997 15.1746 19.7115 15.4776ZM18.2448 20.1167H10.3926C10.2742 20.1167 10.1613 20.1666 10.0786 20.2544C9.99595 20.3421 9.95 20.4605 9.95 20.5833C9.95 20.7062 9.99595 20.8245 10.0786 20.9123C10.1613 21.0001 10.2742 21.05 10.3926 21.05H18.2448C18.3632 21.05 18.4761 21.0001 18.5588 20.9123C18.6415 20.8245 18.6874 20.7062 18.6874 20.5833C18.6874 20.4605 18.6415 20.3421 18.5588 20.2544C18.4761 20.1666 18.3632 20.1167 18.2448 20.1167ZM10.8352 16V11.8833H17.8022V16C17.8022 16.6507 17.5586 17.2742 17.1258 17.7335C16.6932 18.1926 16.107 18.45 15.4965 18.45H13.1409C12.5304 18.45 11.9442 18.1926 11.5116 17.7335C11.0788 17.2742 10.8352 16.6507 10.8352 16Z" fill="white" stroke="white" stroke-width="0.1"/>
<defs>
<filter id="filter0_d_42_167" x="0.6" y="0.6" width="28.8" height="36.8" filterUnits="userSpaceOnUse" color-interpolation-filters="sRGB">
<feFlood flood-opacity="0" result="BackgroundImageFix"/>
<feColorMatrix in="SourceAlpha" type="matrix" values="0 0 0 0 0 0 0 0 0 0 0 0 0 0 0 0 0 0 127 0" result="hardAlpha"/>
<feOffset/>
<feGaussianBlur stdDeviation="2.2"/>
<feComposite in2="hardAlpha" operator="out"/>
<feColorMatrix type="matrix" values="0 0 0 0 0.203438 0 0 0 0 0.314198 0 0 0 0 0.361667 0 0 0 0.36 0"/>
<feBlend mode="normal" in2="BackgroundImageFix" result="effect1_dropShadow_42_167"/>
<feBlend mode="normal" in="SourceGraphic" in2="effect1_dropShadow_42_167" result="shape"/>
</filter>
</defs>
</svg>
