<svg width="30" height="38" viewBox="0 0 30 38" fill="none" xmlns="http://www.w3.org/2000/svg">
<g filter="url(#filter0_d_42_115)">
<path d="M19.8016 30.5651C22.1731 27.3027 24.4196 20.75 25 16.3923V14.3129C24.8624 11.7594 23.7177 9.35893 21.8089 7.62078C19.9001 5.88264 17.3773 4.94352 14.7756 5.00263C12.1738 5.06174 9.69787 6.11443 7.87286 7.93741C6.04786 9.76039 5.01738 12.2102 5 14.7673V14.9475C5.01549 15.4324 5.06834 15.9153 5.1581 16.3923C5.15924 16.3982 5.15924 16.4043 5.1581 16.4102C5.53123 19.1048 6.70514 25.7724 10.2055 30.5783C10.7517 31.3285 11.4724 31.9397 12.3076 32.361C13.1427 32.7822 14.0682 33.0013 15.007 33C15.9458 32.9987 16.8707 32.7771 17.7046 32.3535C18.5386 31.93 19.2576 31.3168 19.8016 30.5651Z" fill="#1CBDE7"/>
</g>
<path fill-rule="evenodd" clip-rule="evenodd" d="M20 10.5913L19.9947 10.5166L19.9941 10.5109C19.9739 10.3693 19.9012 10.2396 19.7894 10.1457C19.6776 10.0518 19.5344 10 19.386 10C18.6649 10 17.9733 10.276 17.4633 10.7672C16.9534 11.2585 16.6669 11.9248 16.6669 12.6195L16.6667 17.5212L16.6718 17.5959L16.6727 17.6016C16.6928 17.7431 16.7655 17.8729 16.8773 17.9668C16.9891 18.0607 17.1324 18.1124 17.2807 18.1124H18.7723V21.9999H19.9998L20 10.5913ZM19.732 10.2092C19.7439 10.2192 19.7554 10.2298 19.7663 10.2407ZM18.2019 11.7455C18.3521 11.5565 18.5483 11.4069 18.7723 11.3095V16.9299H17.8945V12.621L17.8986 12.508C17.9211 12.2309 18.0264 11.9661 18.2019 11.7455Z" fill="white"/>
<path fill-rule="evenodd" clip-rule="evenodd" d="M15.7893 10.5913L15.784 10.5166L15.7834 10.5109C15.7632 10.3693 15.6905 10.2396 15.5788 10.1457C15.467 10.0518 15.3237 10 15.1754 10C15.0126 10 14.8565 10.0623 14.7414 10.1732C14.6263 10.2841 14.5616 10.4345 14.5616 10.5913V13.294L14.5568 13.416C14.5317 13.7359 14.4077 14.0414 14.2009 14.2929C14.0187 14.5144 13.7797 14.6851 13.5083 14.7888L13.5085 10.5913L13.5034 10.5166L13.5026 10.5108C13.4814 10.3624 13.4025 10.2273 13.2819 10.1328C13.1613 10.0382 13.0079 9.99132 12.8527 10.0015C12.6976 10.0117 12.5523 10.0783 12.4461 10.1878C12.3399 10.2972 12.2809 10.4415 12.2808 10.5913V14.7895C11.6639 14.5538 11.2276 13.974 11.2276 13.2956L11.2278 10.5913L11.2226 10.5166L11.2218 10.5108C11.2006 10.3624 11.1217 10.2273 11.0011 10.1328C10.8805 10.0382 10.7271 9.99132 10.572 10.0015C10.4168 10.0117 10.2715 10.0783 10.1653 10.1878C10.0591 10.2972 10.0001 10.4415 10 10.5913L10 13.2956L10.0035 13.4383L10.0037 13.4406C10.0375 14.0638 10.2871 14.6581 10.7128 15.1285C11.1226 15.5813 11.6727 15.8941 12.2808 16.0214C12.2811 16.7755 12.2849 21.5346 12.292 21.9172L12.2935 22L13.5071 21.9985L13.5083 21.9156C13.512 21.6712 13.5096 18.0093 13.5087 16.54L13.5084 16.0215C14.8117 15.7496 15.7891 14.6331 15.7891 13.2956L15.7893 10.5913ZM14.2694 14.3452C14.0514 14.6103 13.7558 14.8064 13.4209 14.9081C13.4504 14.8992 13.4795 14.8895 13.5083 14.8791C13.8072 14.7714 14.0705 14.587 14.2694 14.3452ZM12.3682 10.5913V14.9088C12.3323 14.8979 12.2968 14.8859 12.2619 14.8728C12.2682 14.8752 12.2745 14.8775 12.2808 14.8798C12.3096 14.8902 12.3388 14.8998 12.3682 14.9088V10.5913ZM13.4212 16.4369L13.4209 15.9678C13.4209 16.0336 13.421 16.1998 13.4212 16.4369ZM15.5213 10.2092C15.5333 10.2192 15.5447 10.2298 15.5556 10.2407Z" fill="white"/>
<defs>
<filter id="filter0_d_42_115" x="0.6" y="0.6" width="28.8" height="36.8" filterUnits="userSpaceOnUse" color-interpolation-filters="sRGB">
<feFlood flood-opacity="0" result="BackgroundImageFix"/>
<feColorMatrix in="SourceAlpha" type="matrix" values="0 0 0 0 0 0 0 0 0 0 0 0 0 0 0 0 0 0 127 0" result="hardAlpha"/>
<feOffset/>
<feGaussianBlur stdDeviation="2.2"/>
<feComposite in2="hardAlpha" operator="out"/>
<feColorMatrix type="matrix" values="0 0 0 0 0.203438 0 0 0 0 0.314198 0 0 0 0 0.361667 0 0 0 0.36 0"/>
<feBlend mode="normal" in2="BackgroundImageFix" result="effect1_dropShadow_42_115"/>
<feBlend mode="normal" in="SourceGraphic" in2="effect1_dropShadow_42_115" result="shape"/>
</filter>
</defs>
</svg>
