<svg width="30" height="38" viewBox="0 0 30 38" fill="none" xmlns="http://www.w3.org/2000/svg">
<g filter="url(#filter0_d_42_120)">
<path d="M19.8016 30.5651C22.1731 27.3027 24.4196 20.75 25 16.3923V14.3129C24.8624 11.7594 23.7177 9.35893 21.8089 7.62078C19.9001 5.88264 17.3773 4.94352 14.7756 5.00263C12.1738 5.06174 9.69787 6.11443 7.87286 7.93741C6.04786 9.76039 5.01738 12.2102 5 14.7673V14.9475C5.01549 15.4324 5.06834 15.9153 5.1581 16.3923C5.15924 16.3982 5.15924 16.4043 5.1581 16.4102C5.53123 19.1048 6.70514 25.7724 10.2055 30.5783C10.7517 31.3285 11.4724 31.9397 12.3076 32.361C13.1427 32.7822 14.0682 33.0013 15.007 33C15.9458 32.9987 16.8707 32.7771 17.7046 32.3535C18.5386 31.93 19.2576 31.3168 19.8016 30.5651Z" fill="#1CBDE7"/>
</g>
<path fill-rule="evenodd" clip-rule="evenodd" d="M9.94445 12.246V17.5441L14.368 17.5441V13.7044C14.368 13.4095 14.5928 13.1691 14.8727 13.1691H19.0942C19.6684 13.1691 20.1131 13.1691 20.4501 13.2018C20.7851 13.2344 21.0551 13.3019 21.2489 13.4715C21.4505 13.6479 21.5339 13.9018 21.5729 14.2089C21.6111 14.5097 21.6111 14.9038 21.6111 15.4005V20.8725H20.493V18.9544C20.493 18.8861 20.4408 18.8308 20.3764 18.8308H10.0611C9.99668 18.8308 9.94445 18.8861 9.94445 18.9544V20.8725H8.68054V12.246C8.68054 11.9504 8.90689 11.7108 9.1861 11.7108H9.43889C9.7181 11.7108 9.94445 11.9504 9.94445 12.246ZM20.3764 17.5441L15.7486 17.5441C15.6842 17.5441 15.6319 17.4888 15.6319 17.4205V14.5794C15.6319 14.5111 15.6842 14.4558 15.7486 14.4558H19.0833C19.4877 14.4558 19.7795 14.456 19.9959 14.4735C20.2178 14.4914 20.3224 14.5259 20.3769 14.5655C20.4161 14.5941 20.4499 14.6401 20.4705 14.775C20.4924 14.9188 20.493 15.1177 20.493 15.4166V17.4206C20.493 17.4888 20.4408 17.5441 20.3764 17.5441Z" fill="white"/>
<path fill-rule="evenodd" clip-rule="evenodd" d="M14.0278 15.125C14.0278 16.1068 13.2453 16.8235 12.375 16.8235C11.5047 16.8235 10.7222 16.1068 10.7222 15.125C10.7222 14.1432 11.5047 13.4265 12.375 13.4265C13.2453 13.4265 14.0278 14.1432 14.0278 15.125ZM12.375 16C12.8583 16 13.25 15.6082 13.25 15.125C13.25 14.6417 12.8583 14.25 12.375 14.25C11.8918 14.25 11.5 14.6417 11.5 15.125C11.5 15.6082 11.8918 16 12.375 16Z" fill="white"/>
<defs>
<filter id="filter0_d_42_120" x="0.6" y="0.6" width="28.8" height="36.8" filterUnits="userSpaceOnUse" color-interpolation-filters="sRGB">
<feFlood flood-opacity="0" result="BackgroundImageFix"/>
<feColorMatrix in="SourceAlpha" type="matrix" values="0 0 0 0 0 0 0 0 0 0 0 0 0 0 0 0 0 0 127 0" result="hardAlpha"/>
<feOffset/>
<feGaussianBlur stdDeviation="2.2"/>
<feComposite in2="hardAlpha" operator="out"/>
<feColorMatrix type="matrix" values="0 0 0 0 0.203438 0 0 0 0 0.314198 0 0 0 0 0.361667 0 0 0 0.36 0"/>
<feBlend mode="normal" in2="BackgroundImageFix" result="effect1_dropShadow_42_120"/>
<feBlend mode="normal" in="SourceGraphic" in2="effect1_dropShadow_42_120" result="shape"/>
</filter>
</defs>
</svg>
