<svg width="30" height="38" viewBox="0 0 30 38" fill="none" xmlns="http://www.w3.org/2000/svg">
<g filter="url(#filter0_d_42_222)">
<path d="M19.8016 30.5651C22.1731 27.3027 24.4196 20.75 25 16.3923V14.3129C24.8624 11.7594 23.7177 9.35893 21.8089 7.62078C19.9001 5.88264 17.3773 4.94352 14.7756 5.00263C12.1738 5.06174 9.69787 6.11443 7.87286 7.93741C6.04786 9.76039 5.01738 12.2102 5 14.7673V14.9475C5.01549 15.4324 5.06834 15.9153 5.1581 16.3923C5.15924 16.3982 5.15924 16.4043 5.1581 16.4102C5.53123 19.1048 6.70514 25.7724 10.2055 30.5783C10.7517 31.3285 11.4724 31.9397 12.3076 32.361C13.1427 32.7822 14.0682 33.0013 15.007 33C15.9458 32.9987 16.8707 32.7771 17.7046 32.3535C18.5386 31.93 19.2576 31.3168 19.8016 30.5651Z" fill="#1CBDE7"/>
</g>
<path d="M21.16 11.52H16.96C16.96 11.52 16.68 13.76 17.24 16C17.4651 16.3752 18.0212 16.5773 18.64 16.6286V19.36H18.5468L17.52 20.2H20.6L19.5965 19.36H19.48V16.6081C20.0736 16.5311 20.6177 16.3242 20.88 16C21.44 14.04 21.16 11.52 21.16 11.52ZM20.88 13.2H17.24V11.8H20.88V13.2ZM14.02 19.36H12.48V16.98L15.56 12.36H8.28003L11.36 16.98V19.36H9.82003C9.70864 19.36 9.60181 19.4042 9.52304 19.483C9.44428 19.5618 9.40003 19.6686 9.40003 19.78C9.40003 19.8914 9.44428 19.9982 9.52304 20.077C9.60181 20.1557 9.70864 20.2 9.82003 20.2H14.02C14.1314 20.2 14.2382 20.1557 14.317 20.077C14.3958 19.9982 14.44 19.8914 14.44 19.78C14.44 19.6686 14.3958 19.5618 14.317 19.483C14.2382 19.4042 14.1314 19.36 14.02 19.36Z" fill="white"/>
<defs>
<filter id="filter0_d_42_222" x="0.6" y="0.6" width="28.8" height="36.8" filterUnits="userSpaceOnUse" color-interpolation-filters="sRGB">
<feFlood flood-opacity="0" result="BackgroundImageFix"/>
<feColorMatrix in="SourceAlpha" type="matrix" values="0 0 0 0 0 0 0 0 0 0 0 0 0 0 0 0 0 0 127 0" result="hardAlpha"/>
<feOffset/>
<feGaussianBlur stdDeviation="2.2"/>
<feComposite in2="hardAlpha" operator="out"/>
<feColorMatrix type="matrix" values="0 0 0 0 0.203438 0 0 0 0 0.314198 0 0 0 0 0.361667 0 0 0 0.36 0"/>
<feBlend mode="normal" in2="BackgroundImageFix" result="effect1_dropShadow_42_222"/>
<feBlend mode="normal" in="SourceGraphic" in2="effect1_dropShadow_42_222" result="shape"/>
</filter>
</defs>
</svg>
